<svg id="Layer_1" enable-background="new 0 0 256 256" height="512" viewBox="0 0 256 256" width="512" xmlns="http://www.w3.org/2000/svg"><g><g><g><path d="m98.437 140.843h22.408v22.408h-22.408z" fill="#e0ebfc"/></g></g><g><g><path d="m120.845 165.251h-22.408c-1.104 0-2-.896-2-2v-22.408c0-1.104.896-2 2-2h22.408c1.104 0 2 .896 2 2v22.408c0 1.104-.895 2-2 2zm-20.408-4h18.408v-18.408h-18.408z" fill="#3762cc"/></g></g><g><g><path d="m200.789 145.689h-188.781c-2.209 0-4-1.791-4-4v-123.1c0-2.209 1.791-4 4-4h188.781c2.209 0 4 1.791 4 4v123.099c0 2.21-1.791 4.001-4 4.001z" fill="#4671c6"/></g></g><g><g><path d="m19.545 133.794v-107.31c0-1.105.895-2 2-2h169.707c1.105 0 2 .895 2 2v107.31c0 1.105-.895 2-2 2h-169.707c-1.105 0-2-.896-2-2z" fill="#a4c9ff"/></g></g><g><g><path d="m200.789 147.689h-188.781c-3.309 0-6-2.691-6-6v-123.1c0-3.309 2.691-6 6-6h188.781c3.309 0 6 2.691 6 6v123.1c0 3.309-2.691 6-6 6zm-188.781-131.1c-1.103 0-2 .897-2 2v123.1c0 1.103.897 2 2 2h188.781c1.103 0 2-.897 2-2v-123.1c0-1.103-.897-2-2-2z" fill="#3762cc"/></g></g><g><g><path d="m191.252 137.794h-169.708c-2.206 0-4-1.794-4-4v-107.31c0-2.206 1.794-4 4-4h169.708c2.206 0 4 1.794 4 4v107.31c0 2.206-1.794 4-4 4zm-169.708-111.31v107.312l169.708-.002v-107.31z" fill="#3762cc"/></g></g><g><g><path d="m45.547 116.827h7.185c10.553 0 19.107-8.555 19.107-19.107v-35.838h-7.185c-10.553 0-19.107 8.555-19.107 19.107z" fill="#ffea92"/></g></g><g><g><circle cx="75.424" cy="85.004" fill="#f9cfcf" r="11.154"/></g></g><g><g><path d="m75.424 98.158c-7.253 0-13.154-5.901-13.154-13.154s5.901-13.154 13.154-13.154 13.154 5.901 13.154 13.154-5.9 13.154-13.154 13.154zm0-22.308c-5.048 0-9.154 4.106-9.154 9.154s4.106 9.154 9.154 9.154 9.154-4.106 9.154-9.154-4.106-9.154-9.154-9.154z" fill="#3762cc"/></g></g><g><g><path d="m141.525 163.251h-63.767c-2.348 0-4.251 1.903-4.251 4.251 0 2.348 1.903 4.251 4.251 4.251h63.767c2.348 0 4.251-1.903 4.251-4.251 0-2.348-1.904-4.251-4.251-4.251z" fill="#4671c6"/></g></g><g><g><path d="m97.932 111.279h20.914v14.341h-20.914z" fill="#f9cfcf"/></g></g><g><g><path d="m167.248 116.827h-7.185c-10.553 0-19.107-8.555-19.107-19.107v-35.838h7.185c10.553 0 19.107 8.555 19.107 19.107z" fill="#ffea92"/></g></g><g><g><path d="m141.524 173.753h-63.766c-3.447 0-6.251-2.804-6.251-6.251s2.804-6.251 6.251-6.251h63.767c3.447 0 6.251 2.804 6.251 6.251-.001 3.447-2.804 6.251-6.252 6.251zm-63.766-8.502c-1.242 0-2.251 1.01-2.251 2.251 0 1.242 1.01 2.251 2.251 2.251h63.767c1.241 0 2.251-1.01 2.251-2.251s-1.01-2.251-2.251-2.251z" fill="#3762cc"/></g></g><g><g><path d="m118.846 127.62h-20.914c-1.104 0-2-.896-2-2v-14.341c0-1.104.896-2 2-2h20.914c1.104 0 2 .896 2 2v14.341c0 1.105-.895 2-2 2zm-18.914-4h16.914v-10.341h-16.914z" fill="#3762cc"/></g></g><g><g><path d="m114.365 118.45h-15.935c-14.686 0-26.591-11.905-26.591-26.591v-29.977h69.117v29.977c0 14.685-11.905 26.591-26.591 26.591z" fill="#f9cfcf"/></g></g><g><g><path d="m86.28 95.145c-2.915 0-5.278-2.363-5.278-5.278v-7.768c0-2.915 2.363-5.278 5.278-5.278 2.915 0 5.278 2.363 5.278 5.278v7.768c0 2.915-2.363 5.278-5.278 5.278z" fill="#3762cc"/></g></g><g><g><path d="m99.874 109.287c-3.603 0-6.523-2.921-6.523-6.523v-3.635h13.047v3.635c-.001 3.603-2.921 6.523-6.524 6.523z" fill="#f9a7a7"/></g></g><g><g><path d="m114.365 120.45h-15.935c-15.765 0-28.591-12.826-28.591-28.591v-29.978c0-1.104.896-2 2-2h69.117c1.104 0 2 .896 2 2v29.978c0 15.765-12.826 28.591-28.591 28.591zm-40.526-56.569v27.978c0 13.56 11.032 24.591 24.591 24.591h15.935c13.56 0 24.591-11.031 24.591-24.591v-27.978z" fill="#3762cc"/></g></g><g><g><path d="m140.956 74.049h-58.245c-6.005 0-10.872-4.868-10.872-10.872 0-15.676 12.708-28.384 28.384-28.384h12.349c15.676 0 28.384 12.708 28.384 28.384z" fill="#ffea92"/></g></g><g><g><path d="m140.956 76.049h-58.245c-7.098 0-12.873-5.774-12.873-12.873 0-16.754 13.63-30.384 30.384-30.384h12.35c16.754 0 30.384 13.63 30.384 30.384v10.873c0 1.104-.895 2-2 2zm-40.733-39.257c-14.548 0-26.384 11.836-26.384 26.384 0 4.893 3.98 8.873 8.873 8.873h56.245v-8.873c0-14.548-11.836-26.384-26.384-26.384z" fill="#3762cc"/></g></g><g><g><path d="m52.732 118.828h-7.185c-1.104 0-2-.896-2-2v-35.839c0-11.639 9.469-21.107 21.107-21.107h7.185c1.104 0 2 .896 2 2v35.838c0 11.639-9.469 21.108-21.107 21.108zm-5.185-4h5.185c9.433 0 17.107-7.674 17.107-17.107v-33.84h-5.185c-9.433 0-17.107 7.674-17.107 17.107z" fill="#3762cc"/></g></g><g><g><path d="m167.248 118.828h-7.186c-11.638 0-21.106-9.469-21.106-21.107v-35.84c0-1.104.896-2 2-2h7.185c11.639 0 21.107 9.469 21.107 21.107v35.839c0 1.105-.895 2.001-2 2.001zm-24.292-54.947v33.839c0 9.433 7.674 17.107 17.106 17.107h5.186v-33.838c0-9.433-7.675-17.107-17.107-17.107h-5.185z" fill="#3762cc"/></g></g><g><g><path d="m80.263 107.075-2.126-2.126c-1.703-1.703-3.899-2.603-6.129-2.722l-9.448-11.26c-1.601-1.908-4.447-2.157-6.355-.556s-2.157 4.447-.556 6.355l7.944 9.468-1.183 1.183-9.468-7.945c-1.908-1.601-4.754-1.352-6.355.556s-1.352 4.754.556 6.355l11.26 9.448c.119 2.23 1.019 4.426 2.722 6.129l2.126 2.126c3.661 3.661 9.598 3.661 13.259 0l3.753-3.753c3.661-3.66 3.661-9.597 0-13.258z" fill="#f9cfcf"/></g></g><g><g><path d="m69.881 128.833c-3.039 0-5.895-1.183-8.043-3.332l-2.126-2.126c-1.769-1.769-2.895-4.063-3.222-6.538l-10.632-8.921c-1.332-1.118-2.149-2.688-2.301-4.42-.151-1.732.381-3.42 1.499-4.752 2.178-2.597 5.968-3.063 8.7-1.164-.87-1.248-1.271-2.747-1.137-4.28.151-1.732.969-3.302 2.301-4.42 2.75-2.308 6.866-1.947 9.173.802l8.921 10.632c2.474.328 4.769 1.453 6.538 3.222l2.126 2.127c4.435 4.435 4.435 11.652 0 16.087l-3.753 3.752c-2.149 2.147-5.006 3.331-8.044 3.331zm-19.837-28.416c-.717 0-1.429.305-1.925.896-.431.514-.637 1.165-.578 1.833s.374 1.273.888 1.705l11.26 9.449c.424.356.682.873.711 1.426.097 1.827.857 3.539 2.139 4.82l2.126 2.127c1.393 1.393 3.245 2.16 5.215 2.16s3.822-.767 5.215-2.16l3.753-3.752c2.875-2.876 2.875-7.555 0-10.431l-2.126-2.126c-1.283-1.282-2.995-2.042-4.821-2.139-.553-.029-1.069-.287-1.426-.711l-9.448-11.26c-.89-1.06-2.477-1.199-3.538-.309-.514.431-.829 1.036-.887 1.704-.059.668.147 1.319.578 1.833l7.944 9.468c.667.794.615 1.967-.118 2.7l-1.184 1.184c-.732.733-1.906.785-2.7.118l-9.468-7.945c-.467-.397-1.04-.59-1.61-.59z" fill="#3762cc"/></g></g><g><g><path d="m197.652 194.225c-24.892 0-45.071-20.179-45.071-45.071v-14.432c0-4.103 3.326-7.43 7.43-7.43h82.711v21.861c0 24.893-20.178 45.072-45.07 45.072z" fill="#4671c6"/></g></g><g><g><path d="m197.651 196.225c-25.955 0-47.07-21.116-47.07-47.071v-14.431c0-5.2 4.23-9.43 9.43-9.43h82.712c1.104 0 2 .896 2 2v21.861c0 25.955-21.117 47.071-47.072 47.071zm-37.64-66.933c-2.994 0-5.43 2.436-5.43 5.43v14.431c0 23.75 19.321 43.071 43.07 43.071 23.75 0 43.071-19.321 43.071-43.071v-19.861z" fill="#3762cc"/></g></g><g><g><path d="m245.813 241.411v-14.437c0-9.851-7.986-17.837-17.837-17.837h-60.647c-9.851 0-17.837 7.986-17.837 17.837v14.437z" fill="#6bdddd"/></g></g><g><g><path d="m197.652 206.558c-6.441 0-12.507-1.579-17.836-4.358v8.363.002c0 9.841 7.978 17.819 17.819 17.819 9.841 0 17.819-7.978 17.819-17.819v-.002-8.345c-5.321 2.768-11.375 4.34-17.802 4.34z" fill="#f9cfcf"/></g></g><g><g><path d="m236.039 154.058v-3.594c0-21.009-17.186-38.041-38.387-38.041-21.201 0-38.387 17.032-38.387 38.041v3.594c-6.666-.135-11.954 5.175-11.954 11.594 0 6.854 5.984 12.275 12.968 11.537 3.962 16.831 19.186 29.37 37.373 29.37 18.189 0 33.412-12.54 37.373-29.37 6.975.738 12.968-4.674 12.968-11.537-.001-6.422-5.293-11.729-11.954-11.594z" fill="#f9cfcf"/></g></g><g><g><path d="m197.651 208.558c-18.307 0-34.074-11.969-38.907-29.307-3.291-.068-6.473-1.307-8.931-3.519-2.861-2.575-4.503-6.249-4.503-10.081 0-3.667 1.449-7.107 4.08-9.685 2.161-2.118 4.904-3.432 7.874-3.803v-1.7c0-22.079 18.117-40.041 40.387-40.041s40.387 17.962 40.387 40.041v1.7c2.971.371 5.713 1.685 7.875 3.804 2.631 2.578 4.079 6.017 4.079 9.685 0 3.832-1.641 7.505-4.502 10.08-2.458 2.212-5.641 3.452-8.932 3.52-4.831 17.337-20.599 29.306-38.907 29.306zm-37.371-33.37c.917 0 1.73.63 1.945 1.542 3.856 16.385 18.424 27.828 35.426 27.828s31.57-11.443 35.426-27.828c.231-.981 1.164-1.645 2.157-1.531 2.76.29 5.529-.597 7.581-2.442 2.019-1.817 3.177-4.407 3.177-7.106 0-2.583-1.022-5.008-2.879-6.828-1.876-1.838-4.385-2.823-7.034-2.767-.547.015-1.057-.194-1.44-.571s-.601-.891-.601-1.429v-3.594c0-19.873-16.323-36.041-36.387-36.041s-36.387 16.168-36.387 36.041v3.594c0 .538-.217 1.052-.601 1.429-.384.376-.914.589-1.44.571-2.649-.056-5.158.929-7.034 2.766-1.856 1.82-2.879 4.245-2.879 6.828 0 2.699 1.158 5.29 3.179 7.107 2.079 1.871 4.764 2.735 7.579 2.441.071-.006.142-.01.212-.01z" fill="#3762cc"/></g></g><g><g><path d="m245.812 243.411h-96.322c-1.104 0-2-.896-2-2v-14.437c0-10.938 8.899-19.837 19.838-19.837h10.487v-4.937c0-.699.365-1.348.963-1.71.6-.362 1.344-.386 1.962-.063 5.183 2.703 11.03 4.131 16.911 4.131 5.953 0 11.632-1.384 16.879-4.114.62-.322 1.363-.298 1.961.065.597.362.962 1.011.962 1.709v4.918h10.522c10.938 0 19.837 8.899 19.837 19.837v14.437c0 1.105-.895 2.001-2 2.001zm-94.322-4h92.322v-12.437c0-8.733-7.104-15.837-15.837-15.837h-12.522c-1.104 0-2-.896-2-2v-3.771c-4.974 2.095-10.376 3.192-15.802 3.192-5.438 0-10.853-1.103-15.836-3.207v3.785c0 1.104-.896 2-2 2h-12.487c-8.733 0-15.838 7.104-15.838 15.837z" fill="#3762cc"/></g></g><g><g><path d="m210.184 183.229c0 6.924-5.613 12.537-12.537 12.537-6.924 0-12.537-5.613-12.537-12.537z" fill="#f9a7a7"/></g></g><g><g><path d="m223.172 145.081h-43.829c-10.942 0-19.813-8.871-19.813-19.813 0-10.942 8.871-19.813 19.813-19.813h63.467v19.988c0 10.846-8.792 19.638-19.638 19.638z" fill="#4671c6"/></g></g><g><g><path d="m223.173 147.081h-43.829c-12.028 0-21.813-9.785-21.813-21.813s9.785-21.813 21.813-21.813h63.467c1.104 0 2 .896 2 2v19.988c0 11.932-9.707 21.638-21.638 21.638zm-43.829-39.626c-9.822 0-17.813 7.991-17.813 17.813s7.991 17.813 17.813 17.813h43.829c9.726 0 17.638-7.912 17.638-17.638v-17.988z" fill="#3762cc"/></g></g><g><g><path d="m176.499 175.333c.728.548 1.731.547 2.458-.003l8.86-6.703c2.497-1.881 3.375-5.232 2.121-8.096-1.362-3.11-4.822-4.723-8.079-3.767-1.861.546-3.337 1.841-4.151 3.491-.814-1.65-2.29-2.945-4.151-3.491-3.423-1.004-7.069.828-8.27 4.252-.985 2.809.086 5.935 2.464 7.726z" fill="#f9a7a7"/></g></g><g><g><path d="m216.367 175.333c.728.548 1.731.547 2.458-.003l8.86-6.703c2.497-1.881 3.375-5.232 2.121-8.096-1.362-3.11-4.822-4.723-8.079-3.767-1.861.546-3.337 1.841-4.151 3.491-.814-1.65-2.29-2.945-4.151-3.491-3.423-1.004-7.069.828-8.27 4.252-.985 2.809.086 5.935 2.464 7.726z" fill="#f9a7a7"/></g></g><g><g><path d="m193.635 235.122h-73.994c-7.168 0-13-5.832-13-13v-76.433h6v76.433c0 3.86 3.14 7 7 7h73.994c.552 0 1-.449 1-1v-16.308h6v16.308c0 3.859-3.141 7-7 7z" fill="#3762cc"/></g></g><g><g><path d="m218.139 217.07h-41.009c-.986 0-1.785-.799-1.785-1.785v-6.941c0-.986.799-1.785 1.785-1.785h41.009c.986 0 1.785.799 1.785 1.785v6.941c0 .986-.799 1.785-1.785 1.785z" fill="#a4c9ff"/></g></g><g><g><path d="m218.139 219.07h-41.009c-2.087 0-3.785-1.698-3.785-3.786v-6.941c0-2.087 1.698-3.785 3.785-3.785h41.009c2.087 0 3.785 1.698 3.785 3.785v6.941c0 2.088-1.698 3.786-3.785 3.786zm-40.794-4h40.579v-6.512h-40.579z" fill="#3762cc"/></g></g><g><g><path d="m57.6 55.631c.655.493 1.558.493 2.212-.002l7.974-6.033c2.248-1.693 3.038-4.709 1.909-7.286-1.226-2.799-4.34-4.251-7.271-3.391-1.675.491-3.003 1.657-3.736 3.142-.733-1.485-2.061-2.65-3.736-3.142-3.08-.904-6.362.745-7.443 3.827-.887 2.528.078 5.342 2.218 6.954z" fill="#f9a7a7"/></g></g><g><g><path d="m127.81 91.525c-1.104 0-2-.896-2-2 0-4.251-3.458-7.71-7.71-7.71s-7.71 3.458-7.71 7.71c0 1.104-.896 2-2 2s-2-.896-2-2c0-6.457 5.253-11.71 11.71-11.71s11.71 5.253 11.71 11.71c0 1.105-.896 2-2 2z" fill="#3762cc"/></g></g><g><g><circle cx="140.956" cy="85.004" fill="#f9cfcf" r="11.154"/></g></g><g><g><path d="m140.956 98.158c-1.31 0-2.604-.192-3.846-.572-1.057-.322-1.651-1.44-1.329-2.497s1.44-1.652 2.497-1.329c.863.263 1.764.397 2.678.397 5.048 0 9.154-4.106 9.154-9.154s-4.106-9.154-9.154-9.154c-2.785 0-5.386 1.246-7.135 3.417-.692.862-1.952.996-2.812.304-.86-.693-.997-1.952-.304-2.812 2.512-3.12 6.247-4.91 10.25-4.91 7.253 0 13.154 5.901 13.154 13.154s-5.9 13.156-13.153 13.156z" fill="#3762cc"/></g></g><g><g><path d="m58.705 57.997c-.814 0-1.628-.256-2.308-.768l-7.874-5.931c-2.902-2.187-4.068-5.889-2.901-9.214 1.423-4.06 5.768-6.292 9.893-5.083 1.189.349 2.273.967 3.173 1.79.9-.823 1.983-1.441 3.173-1.79 3.884-1.142 8.042.796 9.667 4.507 1.508 3.442.465 7.425-2.537 9.686l-7.971 6.03c-.682.515-1.499.773-2.315.773zm.098-3.964c.001.001.001.001 0 0 0 .001 0 .001 0 0zm-5.56-13.36c-1.689 0-3.259 1.06-3.847 2.734-.578 1.648.053 3.579 1.534 4.695l7.774 5.857 7.875-5.958c1.518-1.143 2.043-3.152 1.283-4.888-.819-1.872-2.916-2.847-4.876-2.274-1.089.319-2.002 1.088-2.505 2.108-.337.683-1.032 1.115-1.793 1.115s-1.457-.432-1.793-1.115c-.503-1.02-1.417-1.789-2.505-2.108-.383-.112-.768-.166-1.147-.166z" fill="#3762cc"/></g></g></g></svg>