<svg id="Filled" height="512" viewBox="0 0 512 512" width="512" xmlns="http://www.w3.org/2000/svg"><path d="m480 328h-448v-240a16 16 0 0 1 16-16h112l32-48h128l32 48h112a16 16 0 0 1 16 16z" fill="#f7cca9"/><path d="m352 72h-192l32-48h128z" fill="#bd620e"/><path d="m352 72h-192l32-48h128z" fill="#a36f58"/><path d="m64 224h64a0 0 0 0 1 0 0v248a16 16 0 0 1 -16 16h-32a16 16 0 0 1 -16-16v-248a0 0 0 0 1 0 0z" fill="#f7b030"/><path d="m64 192h64v32h-64z" fill="#dadcde"/><path d="m128 192h-64l24-80h16z" fill="#f7b030"/><path d="m128 224h64a0 0 0 0 1 0 0v248a16 16 0 0 1 -16 16h-32a16 16 0 0 1 -16-16v-248a0 0 0 0 1 0 0z" fill="#ff8e26"/><path d="m128 192h64v32h-64z" fill="#c3c6c7"/><path d="m192 192h-64l24-80h16z" fill="#ff8e26"/><path d="m192 224h64a0 0 0 0 1 0 0v248a16 16 0 0 1 -16 16h-32a16 16 0 0 1 -16-16v-248a0 0 0 0 1 0 0z" fill="#eb423f"/><path d="m192 192h64v32h-64z" fill="#dadcde"/><path d="m256 192h-64l24-80h16z" fill="#eb423f"/><path d="m256 224h64a0 0 0 0 1 0 0v248a16 16 0 0 1 -16 16h-32a16 16 0 0 1 -16-16v-248a0 0 0 0 1 0 0z" fill="#b077c7"/><path d="m256 192h64v32h-64z" fill="#c3c6c7"/><path d="m320 192h-64l24-80h16z" fill="#b077c7"/><path d="m320 224h64a0 0 0 0 1 0 0v248a16 16 0 0 1 -16 16h-32a16 16 0 0 1 -16-16v-248a0 0 0 0 1 0 0z" fill="#3dc285"/><path d="m320 192h64v32h-64z" fill="#dadcde"/><path d="m384 192h-64l24-80h16z" fill="#3dc285"/><path d="m384 224h64a0 0 0 0 1 0 0v248a16 16 0 0 1 -16 16h-32a16 16 0 0 1 -16-16v-248a0 0 0 0 1 0 0z" fill="#2d85cc"/><path d="m384 192h64v32h-64z" fill="#c3c6c7"/><path d="m448 192h-64l24-80h16z" fill="#2d85cc"/><path d="m448 488h-384a32 32 0 0 1 -32-32v-192h128l32 48h128l32-48h128v192a32 32 0 0 1 -32 32z" fill="#d49073"/><path d="m480 456a32 32 0 0 1 -32 32h-384a32 32 0 0 1 -32-32z" fill="#996046"/><path d="m128 344h256v64h-256z" fill="#a36f58"/><path d="m488 456v-368a24.028 24.028 0 0 0 -24-24h-107.719l-29.625-44.438a8 8 0 0 0 -6.656-3.562h-128a8 8 0 0 0 -6.656 3.562l-29.625 44.438h-107.719a24.028 24.028 0 0 0 -24 24v368a40.045 40.045 0 0 0 40 40h384a40.045 40.045 0 0 0 40-40zm-16-8h-432v-176h115.719l29.625 44.438a8 8 0 0 0 6.656 3.562h128a8 8 0 0 0 6.656-3.562l29.625-44.438h115.719zm-352-248v16h-48v-16zm-45.248-16 19.2-64h4.1l19.2 64zm109.248 16v16h-48v-16zm-45.248-16 19.2-64h4.1l19.2 64zm109.248 16v16h-48v-16zm-45.248-16 19.2-64h4.1l19.2 64zm109.248 16v16h-48v-16zm-45.248-16 19.2-64h4.1l19.2 64zm109.248 16v16h-48v-16zm-45.248-16 19.2-64h4.1l19.2 64zm109.248 16v16h-48v-16zm-45.248-16 19.2-64h4.1l19.2 64zm-2.752 72v-24h48v24zm-256-24h48v53.578l-17.344-26.016a8 8 0 0 0 -6.656-3.562h-24zm64 0h48v72h-48zm64 0h48v72h-48zm64 0h48v24h-24a8 8 0 0 0 -6.656 3.562l-17.344 26.016zm-256 0h48v24h-48zm124.281-200h119.438l21.333 32h-162.1zm-148.281 48h416a8.009 8.009 0 0 1 8 8v168h-16v-64h-.013a8 8 0 0 0 -.324-2.3l-24-80a8 8 0 0 0 -7.663-5.7h-16a8 8 0 0 0 -7.663 5.7l-16.337 54.459-16.337-54.459a8 8 0 0 0 -7.663-5.7h-16a8 8 0 0 0 -7.663 5.7l-16.337 54.459-16.337-54.459a8 8 0 0 0 -7.663-5.7h-16a8 8 0 0 0 -7.663 5.7l-16.337 54.459-16.337-54.459a8 8 0 0 0 -7.663-5.7h-16a8 8 0 0 0 -7.663 5.7l-16.337 54.459-16.337-54.459a8 8 0 0 0 -7.663-5.7h-16a8 8 0 0 0 -7.663 5.7l-16.337 54.459-16.337-54.459a8 8 0 0 0 -7.663-5.7h-16a8 8 0 0 0 -7.663 5.7l-24 80a8 8 0 0 0 -.324 2.3h-.013v64h-16v-168a8.009 8.009 0 0 1 8-8zm-6.624 384h429.248a24.039 24.039 0 0 1 -22.624 16h-384a24.039 24.039 0 0 1 -22.624-16z"/><path d="m120 344v64a8 8 0 0 0 8 8h256a8 8 0 0 0 8-8v-64a8 8 0 0 0 -8-8h-256a8 8 0 0 0 -8 8zm16 8h240v48h-240z"/></svg>