<svg height="512" viewBox="0 0 512 512" width="512" xmlns="http://www.w3.org/2000/svg"><g id="filled_outline" data-name="filled outline"><path d="m155.82 306.78 15.16-10.1 47.25-.38 8.87 11.83 20.9 27.87 64 48v104h-216l-72-248v-120l56 8v96l56 96z" fill="#548aff"/><path d="m155.82 306.78 36.18 45.22 35.1-43.87-8.87-11.83-47.25.38z" fill="#ffbfa1"/><path d="m24 120v-56l24-40h40v48l16-16 16 8-8 32-32 32z" fill="#ffceb6"/><rect fill="#ffc431" height="176" rx="24" width="208" x="280" y="24"/><path d="m376 200-64 48v-48z" fill="#ffb401"/><path d="m192 352-32 32-24-64 19.82-13.22z" fill="#d1e4ff"/><path d="m248 336-24 48-32-32 35.1-43.87z" fill="#d1e4ff"/><path d="m224 384-32 56-32-56 32-32z" fill="#bdd1f2"/><path d="m136 184 24-16h64l24 24v64a56 56 0 0 1 -55.99994 56h-.00012a56 56 0 0 1 -55.99994-56z" fill="#ffceb6"/><path d="m216 176 17.3436 11.5624a26.42217 26.42217 0 0 0 14.6564 4.4376v-12a36 36 0 0 0 -36-36h-36v32z" fill="#91591c"/><path d="m136 184h12.6863a27.31368 27.31368 0 0 1 19.31369 8 27.31369 27.31369 0 0 0 19.31369 8h.68632a28 28 0 0 0 28-28 28 28 0 0 0 -28-28h-20a32 32 0 0 0 -32 32z" fill="#b1712c"/><path d="m176 280h8a24.0275 24.0275 0 0 0 24-24v-8h-16v8a8.00917 8.00917 0 0 1 -8 8h-8z"/><circle cx="168" cy="232" r="8"/><circle cx="216" cy="232" r="8"/><path d="m316.7998 377.59961-63.08593-47.31348-19.60962-26.14746a63.85084 63.85084 0 0 0 21.89575-48.13867v-76a44.04978 44.04978 0 0 0 -44-44h-44a40.04584 40.04584 0 0 0 -40 40v80a63.80992 63.80992 0 0 0 19.98462 46.39551l-9.35474 6.23633-50.62988-86.79493v-90.52343l29.65723-29.65625a8.00849 8.00849 0 0 0 2.10351-3.7168l8-32a7.99877 7.99877 0 0 0 -4.18262-9.0957l-16-8a8.00467 8.00467 0 0 0 -9.23535 1.498l-2.34277 2.34306v-28.68579a8.00039 8.00039 0 0 0 -8-8h-40a8.00153 8.00153 0 0 0 -6.86035 3.88379l-24 40a8.00777 8.00777 0 0 0 -1.13965 4.11621v176a7.97981 7.97981 0 0 0 .31738 2.23047l72 248a7.99952 7.99952 0 0 0 7.68262 5.76953h216a8.00039 8.00039 0 0 0 8-8v-104a8.00091 8.00091 0 0 0 -3.2002-6.40039zm-162.63916-60.0918 27.11963 33.89844-18.15234 18.15137-17.40869-46.42237zm37.83936 21.68555-17.262-21.57764a63.67961 63.67961 0 0 0 34.52392 0zm0 24.12109 22.022 22.022-22.022 38.53855-22.022-38.53857zm10.71973-11.9082 24.17309-30.21533 11.74048 15.65381-16.82471 33.65039zm37.28027-171.40625v2.17383a18.60356 18.60356 0 0 1 -2.21875-1.26758l-13.78857-9.19238a35.76947 35.76947 0 0 0 -5.59766-18.96826 28.04246 28.04246 0 0 1 21.60498 27.25439zm-72-28h20a20 20 0 0 1 0 40h-.68652a19.18268 19.18268 0 0 1 -13.65625-5.65723 35.08246 35.08246 0 0 0 -24.97071-10.34277h-4.68652a24.0275 24.0275 0 0 1 24-24zm-24 104v-64h4.68652a19.18268 19.18268 0 0 1 13.65625 5.65723 35.08246 35.08246 0 0 0 24.97071 10.34277h.68652a36.03016 36.03016 0 0 0 32.0686-19.6731l8.83765 5.89185a34.31972 34.31972 0 0 0 11.09375 4.8291v56.95215a48 48 0 0 1 -96 0zm-91.4707-224h27.4707v32.85693a37.80724 37.80724 0 0 0 -23.53125 16.01807l-7.125 10.6875 13.3125 8.875 7.125-10.6875a21.85533 21.85533 0 0 1 18.21875-9.75 8.00235 8.00235 0 0 0 5.65723-2.34277l11.92285-11.92285 5.10254 2.55078-5.90625 23.625-27.605 27.604-45.17137-6.45288v-46.84546zm251.4707 448h-201.99219l-70.00781-241.1377v-109.63769l40 5.71411v89.06128a8.001 8.001 0 0 0 1.08984 4.03125l55.65967 95.4165 23.76026 63.36084a7.96818 7.96818 0 0 0 .55517 1.15381l-.01123.00635 32 56a8.00024 8.00024 0 0 0 13.89258 0l32-56-.01221-.00684c.07324-.12841.15479-.251.22119-.38379l19.71338-39.42675 53.13135 39.84863z"/><path d="m464 16h-160a32.03667 32.03667 0 0 0 -32 32v128a32.03667 32.03667 0 0 0 32 32v40a8.00024 8.00024 0 0 0 12.7998 6.40039l61.8672-46.40039h85.333a32.03667 32.03667 0 0 0 32-32v-128a32.03667 32.03667 0 0 0 -32-32zm16 160a16.01833 16.01833 0 0 1 -16 16h-128v16h15.99976l-31.99976 24v-32a8.00039 8.00039 0 0 0 -8-8h-8a16.01833 16.01833 0 0 1 -16-16v-128a16.01833 16.01833 0 0 1 16-16h160a16.01833 16.01833 0 0 1 16 16z"/><path d="m376 160h16v16h-16z"/><path d="m384 48a40.04584 40.04584 0 0 0 -40 40v8h16v-8a24 24 0 0 1 48 0v4a17.59085 17.59085 0 0 1 -13.34277 17.08984l-12.59766 3.14942a7.99866 7.99866 0 0 0 -6.05957 7.76074v24h16v-17.75391l6.53809-1.63476a33.56611 33.56611 0 0 0 25.46191-32.61133v-4a40.04584 40.04584 0 0 0 -40-40z"/></g></svg>