<svg id="Layer_3" enable-background="new 0 0 64 64" height="512" viewBox="0 0 64 64" width="512" xmlns="http://www.w3.org/2000/svg" xmlns:xlink="http://www.w3.org/1999/xlink"><linearGradient id="SVGID_1_" gradientUnits="userSpaceOnUse" x1="32" x2="32" y1="63" y2="1"><stop offset="0" stop-color="#9f2fff"/><stop offset="1" stop-color="#0bb1d3"/></linearGradient><path d="m43 29c0-.768-.29-1.469-.766-2 .476-.531.766-1.232.766-2 0-.801-.32-1.526-.834-2.065 1.848-4.064 2.834-8.536 2.834-12.997v-6.938c0-1.103-.897-2-2-2h-4c-1.103 0-2 .897-2 2v2h-10v-2c0-1.103-.897-2-2-2h-4c-1.103 0-2 .897-2 2v6.938c0 4.463.985 8.935 2.834 12.997-.514.538-.834 1.263-.834 2.065 0 .768.29 1.469.766 2-.476.531-.766 1.232-.766 2 0 .806.323 1.536.842 2.075l-13.117 26.019.687.5c1.326.965 2.331.608 3.062.348.616-.218 1.101-.391 2.077.015.245.102.646.657.97 1.104.643.888 1.443 1.993 2.711 2.345.973.272 1.953-.134 2.9-.523.718-.296 1.468-.6 1.986-.512.351.061.891.549 1.368.979.803.726 1.713 1.549 2.897 1.644 1.039.08 1.943-.5 2.823-1.063.639-.409 1.3-.833 1.793-.833s1.154.424 1.794.833c.823.525 1.672 1.069 2.625 1.069.065 0 .132-.003.199-.008 1.185-.095 2.094-.918 2.896-1.644.476-.431 1.016-.919 1.365-.979.52-.087 1.269.216 1.987.513.947.39 1.931.791 2.9.524 1.268-.353 2.067-1.458 2.711-2.346.322-.446.725-1.002.97-1.104.976-.407 1.463-.232 2.077-.015.734.259 1.738.615 3.064-.349l.687-.5-13.116-26.017c.519-.539.842-1.269.842-2.075zm-11 18c-5.506 0-10.478-1.012-14.479-2.912l6.113-12.125c.121.015.241.037.366.037 1.507 0 2.966-.441 4.219-1.277l1.128-.752c.707.632 1.631 1.029 2.653 1.029s1.946-.397 2.654-1.029l1.128.752c1.252.836 2.711 1.277 4.218 1.277.125 0 .245-.022.366-.037l6.113 12.126c-4.002 1.899-8.973 2.911-14.479 2.911zm15.379-1.126 1.786 3.543c-4.85 2.337-10.75 3.583-17.165 3.583s-12.315-1.246-17.166-3.583l1.786-3.543c4.279 2.039 9.561 3.126 15.38 3.126s11.101-1.087 15.379-3.126zm-23.379-17.874h2v-2h-2c-.552 0-1-.448-1-1s.448-1 1-1c1.11 0 2.186.325 3.109.941l1.128.752c-.143.412-.237.847-.237 1.307s.094.895.237 1.306l-1.128.752c-.923.617-1.999.942-3.109.942-.552 0-1-.448-1-1s.448-1 1-1zm17-3c0 .552-.448 1-1 1h-2v2h2c.552 0 1 .448 1 1s-.448 1-1 1c-1.11 0-2.186-.325-3.109-.941l-1.128-.752c.143-.412.237-.847.237-1.307s-.094-.895-.237-1.306l1.128-.752c.923-.617 1.999-.942 3.109-.942.552 0 1 .448 1 1zm-7 2c0 1.103-.897 2-2 2s-2-.897-2-2 .897-2 2-2 2 .897 2 2zm2.899-20c-.465 2.279-2.484 4-4.899 4s-4.434-1.721-4.899-4zm-15.899-4h4v3c0 3.859 3.141 7 7 7s7-3.141 7-7v-3h4v6.938c0 4.152-.912 8.314-2.623 12.101-.125-.017-.248-.039-.377-.039-1.507 0-2.966.441-4.219 1.277l-1.128.752c-.707-.632-1.631-1.029-2.653-1.029s-1.946.397-2.654 1.029l-1.128-.752c-1.252-.836-2.711-1.277-4.218-1.277-.129 0-.252.022-.377.038-1.711-3.784-2.623-7.947-2.623-12.1zm31.192 53.057c-.727-.258-1.828-.647-3.512.053-.768.318-1.28 1.027-1.824 1.778-.507.701-1.032 1.426-1.625 1.591-.312.091-1.026-.208-1.603-.446-.934-.384-1.99-.823-3.088-.634-.922.157-1.658.823-2.369 1.467-.594.537-1.208 1.093-1.715 1.133-.358.026-1.013-.387-1.584-.753-.841-.539-1.794-1.149-2.873-1.149s-2.032.61-2.872 1.149c-.572.366-1.231.776-1.584.753-.508-.04-1.123-.596-1.717-1.133-.712-.644-1.448-1.31-2.371-1.467-1.098-.188-2.153.25-3.087.634-.575.237-1.29.533-1.602.445-.595-.165-1.119-.89-1.627-1.591-.543-.751-1.057-1.46-1.823-1.778-1.684-.699-2.783-.31-3.512-.052-.153.054-.276.098-.383.127l2.511-4.981c5.129 2.477 11.341 3.797 18.068 3.797s12.939-1.32 18.065-3.798l2.512 4.982c-.106-.029-.23-.073-.385-.127z" fill="url(#SVGID_1_)"/></svg>