<svg id="Capa_1" enable-background="new 0 0 512 512" height="512" viewBox="0 0 512 512" width="512" xmlns="http://www.w3.org/2000/svg"><g><g><g clip-rule="evenodd" fill-rule="evenodd"><path d="m7.5 120.001v264.499h45v-279.499h-30c-8.284 0-15 6.716-15 15z" fill="#e4ecf4"/><path d="m459.501 105.001v279.499h44.999v-264.499c0-8.284-6.716-15-15-15z" fill="#e4ecf4"/><path d="m7.501 384.5v22.5c0 8.284 6.716 15 15 15h196 75 196c8.284 0 15-6.716 15-15v-22.5c-165.668 0-331.334 0-497 0z" fill="#9c9c9f"/><path d="m203.5 467h-52.5c-8.284 0-15 6.716-15 15v22.5h240v-22.5c0-8.284-6.716-15-15-15h-52.5l-15-45h-75z" fill="#9c9c9f"/><path d="m7.501 384.5v22.5c0 8.284 6.716 15 15 15h22.499c-8.284 0-15-6.716-15-15v-22.5z" fill="#7e7d83"/><path d="m173.5 467h-22.5c-8.284 0-15 6.716-15 15v22.5h22.5v-22.5c0-8.284 6.716-15 15-15zm67.5-45h-22.5l-15 45h22.5z" fill="#7e7d83"/><path d="m7.5 120.001v264.499h22.5v-264.499c0-8.284 6.716-15 15-15h-22.5c-8.284 0-15 6.716-15 15z" fill="#c6daec"/><path d="m459.501 105.001h22.5v279.499h-22.5z" fill="#c6daec"/><path d="m382.754 221.903c0-49.305-88.504-49.305-88.504 0v29.652c0 24.64 20.224 44.252 44.252 44.252 24.206 0 44.252-19.792 44.252-44.252z" fill="#fedbad"/><path d="m280.197 307.394c-16.723 6.609-32.695 14.713-32.695 32.695v44.411h181.999v-44.411c0-17.98-15.972-26.086-32.695-32.695l-39.727-15.7c-11.708 5.461-25.444 5.465-37.151-.002-.211.212-36.093 14.265-39.731 15.702z" fill="#ed6e8c"/><path d="m183.783 229.293c-17.21 17.21-45.372 17.21-62.582 0l-20.967-20.967c-17.432-17.432-10.503-41.794 5.143-57.439l45.255-45.255 45.255-45.254c15.646-15.646 40.007-22.575 57.439-5.143l20.967 20.967c17.209 17.209 17.211 45.372.001 62.582-17.211 17.211-45.372 17.21-62.582 0l-27.928 27.928c17.209 17.209 17.21 45.371-.001 62.581zm-131.283 155.207h195.002v-44.411c0-17.982 15.972-26.086 32.695-32.695l39.727-15.7c-15.126-7.055-25.674-22.425-25.674-40.139v-29.652c0-49.305 88.504-49.305 88.504 0v29.652c0 1.976-.131 3.923-.385 5.833-2.025 15.207-11.85 28.039-25.293 34.305l39.731 15.701c16.723 6.608 32.695 14.714 32.695 32.695v44.411h30v-377h-407.002z" fill="#e4ecf4"/><path d="m105.377 150.887c-15.646 15.645-22.575 40.007-5.143 57.439l20.967 20.967c17.21 17.21 45.372 17.211 62.582 0 17.21-17.21 17.209-45.372 0-62.582l27.928-27.928c17.21 17.21 45.372 17.211 62.582 0 17.21-17.21 17.209-45.373-.001-62.582l-20.967-20.967c-17.432-17.432-41.793-10.502-57.439 5.143z" fill="#9c9c9f"/><path d="m52.5 7.5h22.5v377h-22.5z" fill="#c6daec"/><path d="m105.377 150.887c-15.646 15.645-22.575 40.007-5.143 57.439l20.967 20.967c11.476 11.476 27.821 15.297 42.541 11.469-7.356-1.913-14.307-5.734-20.041-11.469l-20.967-20.967c-17.432-17.432-10.503-41.794 5.143-57.439l90.509-90.509c6.228-6.228 13.838-11.072 21.841-13.551-15.2-5.325-32.336 1.546-44.34 13.551z" fill="#7e7d83"/><path d="m280.197 307.394c-16.723 6.609-32.695 14.713-32.695 32.695v44.411h22.5v-44.411c0-17.982 15.972-26.086 32.694-32.695 2.441-.965 19.397-7.608 30.355-11.94-4.51-.558-8.946-1.811-13.124-3.762-.21.212-36.092 14.265-39.73 15.702z" fill="#db4b6d"/><path d="m349.751 186.018c-25.154-4.943-55.501 7.013-55.501 35.886v29.652c0 29.055 27.761 50.146 55.511 42.785-18.774-4.982-33.011-22.113-33.011-42.785v-29.652c-.001-20.433 15.201-32.388 33.001-35.886z" fill="#fab684"/></g><g><path d="m437.001 97.5h-15v-52.5h-37.5v-15h52.5zm-67.5-52.5h-15v-15h15z" fill="#fff"/></g><g><path d="m119.999 44.999h-15v-15h15zm-30 0h-15v-15h15z" fill="#fff"/></g></g><g><path d="m489.5 97.501h-22.499v-97.501h-339.502v15h324.502v347h15v-249.499h22.499c4.136 0 7.5 3.364 7.5 7.5v37.499h15v-37.499c0-12.406-10.094-22.5-22.5-22.5z"/><path d="m15 120.001c0-4.136 3.364-7.5 7.5-7.5h22.5v249.499h15v-347h52.499v-15h-67.499v97.501h-22.5c-12.406 0-22.5 10.094-22.5 22.5v204.499h15z"/><path d="m497 377h-59.999v-36.911c0-24.877-24.354-34.5-37.438-39.669l-26.43-10.445c7.597-6.854 13.149-15.925 15.646-26.181l31.475-6.042v-35.85c0-31.098-18.111-56.64-48.447-68.324-34.294-13.209-74.112-4.896-96.826 20.215-11.927 13.185-18.23 29.82-18.23 48.109v29.652h15v-29.652c0-14.509 4.964-27.666 14.354-38.047 18.65-20.616 51.677-27.309 80.312-16.28 24.683 9.508 38.839 29.309 38.839 54.327v23.455l-15 2.879v-26.334c0-29.2-26.034-44.479-51.752-44.479s-51.752 15.278-51.752 44.479v29.652c0 15.229 6.615 28.94 17.12 38.419l-26.429 10.445c-11.678 4.614-32.316 12.786-36.624 32.169h-61.719v15h60.903v29.413h-225.003v-37.499h-15v67.499c0 12.406 10.094 22.5 22.5 22.5h185.594l-10 30h-47.093c-12.407 0-22.501 10.094-22.501 22.5v30h67.499v-15h-52.499v-15c0-4.136 3.365-7.5 7.501-7.5h89.999v-15h-27.094l10-30h64.188l10 30h-12.094v15h74.999c4.136 0 7.501 3.364 7.501 7.5v15h-157.5v15h172.5v-30c0-12.406-10.094-22.5-22.501-22.5h-47.093l-10-30h185.594c12.406 0 22.5-10.094 22.5-22.5v-234.499h-15zm-195.25-125.444v-29.652c0-20.254 19.051-29.479 36.752-29.479s36.752 9.225 36.752 29.479v29.214l-38.166 7.326 2.828 14.73 31.901-6.123c-5.857 12.542-18.583 21.257-33.315 21.257-20.266 0-36.752-16.487-36.752-36.752zm187.75 162.944h-467c-4.136 0-7.5-3.364-7.5-7.5v-15h316.002v-15h-31v-22.5h-15v22.5h-30v-36.911c0-12.273 10.249-18.724 27.952-25.72l36.859-14.567c5.801 2.255 12.1 3.506 18.688 3.506s12.886-1.251 18.687-3.505l36.862 14.568c17.702 6.994 27.95 13.444 27.95 25.719v36.91h-29.999v-22.5h-15v22.5h-31v15h150.999v15c0 4.136-3.364 7.5-7.5 7.5z"/><path d="m256.001 459.5h14.999v15h-14.999z"/><path d="m89.999 332.589h44.1v15h-44.1z"/><path d="m281.522 142.052c18.36-20.459 17.515-51.713-1.927-71.154l-20.967-20.966c-9.823-9.824-22.196-13.954-35.788-11.95-11.473 1.693-22.929 7.764-32.257 17.093l-39.952 39.951-36.949-36.949-10.607 10.607 36.949 36.949-39.952 39.951c-18.185 18.186-25.79 47.398-5.142 68.047l20.966 20.967c9.74 9.739 22.736 15.104 36.595 15.104s26.854-5.364 36.594-15.104c18.378-18.377 20.019-47.251 4.92-67.502l18.099-18.099c15.961 11.818 37.884 13.603 55.701 3.907l-7.17-13.176c-14.25 7.754-32.188 5.186-43.621-6.248l-5.304-5.303-38.534 38.534 5.303 5.303c14.33 14.331 14.33 37.647 0 51.976-14.328 14.33-37.646 14.33-51.976 0l-20.967-20.967c-14.321-14.321-7.373-34.316 5.144-46.832l39.951-39.951 10.607-10.607 39.951-39.951c6.964-6.965 15.653-11.651 23.841-12.859 8.833-1.305 16.567 1.293 22.991 7.717l20.967 20.967c13.807 13.806 14.408 36 1.369 50.527z"/><path d="m153.021 165.653-10.607 10.607-10.607-10.607-10.606 10.608 10.606 10.606-10.606 10.606 10.606 10.607 10.607-10.607 10.607 10.607 10.606-10.607-10.606-10.606 10.606-10.606z"/><path d="m246.194 90.528h14.999v15h-14.999z" transform="matrix(.707 -.707 .707 .707 4.984 208.089)"/><path d="m224.981 111.741h15v15.001h-15z" transform="matrix(.707 -.707 .707 .707 -16.224 199.314)"/><path d="m203.767 90.528h15v15.001h-15z" transform="matrix(.707 -.707 .707 .707 -7.438 178.1)"/><path d="m224.981 69.316h14.999v15h-14.999z" transform="matrix(.707 -.707 .707 .707 13.765 186.867)"/><path d="m149.099 332.589h14.999v15h-14.999z"/><path d="m317.001 74.529h15v15h-15z"/><path d="m347.002 74.529h45v15h-45z"/><path d="m347.002 104.528h45v15h-45z"/><path d="m317.001 104.528h15v15h-15z"/><path d="m149.099 272.59h15v15h-15z"/><path d="m179.099 272.59h45v15h-45z"/><path d="m179.099 302.589h45v15h-45z"/><path d="m149.099 302.589h15v15h-15z"/></g></g></svg>