<svg height="512" viewBox="0 0 64 64" width="512" xmlns="http://www.w3.org/2000/svg"><g id="Filled_outline" data-name="Filled outline"><circle cx="24" cy="15" fill="#f9bb4b" r="8"/><path d="m6 35h36v26h-36z" fill="#50b4f8"/><path d="m10 39h28v18h-28z" fill="#fff69a"/><path d="m11 23v4l6 2v6h14v-6l6-2v-4z" fill="#e33e5c"/><path d="m9 23h2a0 0 0 0 1 0 0v4a0 0 0 0 1 0 0h-2a2 2 0 0 1 -2-2 2 2 0 0 1 2-2z" fill="#f9bb4b"/><path d="m39 23h2a0 0 0 0 1 0 0v4a0 0 0 0 1 0 0h-2a2 2 0 0 1 -2-2 2 2 0 0 1 2-2z" fill="#f9bb4b" transform="matrix(-1 0 0 -1 78 50)"/><circle cx="7" cy="9" fill="#8ec13f" r="2"/><path d="m32 15-8-8 8-4 7 5-7-1z" fill="#e33e5c"/><circle cx="41" cy="9" fill="#8ec13f" r="2"/><path d="m16 15 8-8-8-4-7 5 7-1z" fill="#e33e5c"/><circle cx="24" cy="29" fill="#fff69a" r="2"/><path d="m20 39a19.631 19.631 0 0 1 -10 11v-11z" fill="#195c85"/><path d="m10 50 6 7h-6z" fill="#195c85"/><path d="m28 39a19.631 19.631 0 0 0 10 11v-11z" fill="#195c85"/><path d="m38 50-6 7h6z" fill="#195c85"/><path d="m24 43 1.545 3.292 3.455.708-2.5 2.382.5 3.618-3-2-3 2 .5-3.618-2.5-2.382 3.455-.708z" fill="#e97424"/><g fill="#f9bb4b"><path d="m60 46-6-1v-4l6-1z"/><path d="m42 46h4v10h-4z"/><path d="m15 50h2v2h-2z"/><path d="m31 50h2v2h-2z"/></g><path d="m9 38v20h30v-20zm2 2h7.536a19.15 19.15 0 0 1 -7.536 8.309zm0 16v-3.3l2.826 3.3zm26 0h-2.826l2.826-3.3zm0-16v8.309a19.28 19.28 0 0 1 -7.531-8.309zm-.562 10.286-4.898 5.714h-15.08l-4.9-5.714a20.809 20.809 0 0 0 9.149-10.286h6.582a20.809 20.809 0 0 0 9.147 10.286z"/><path d="m21 12h2v2h-2z"/><path d="m25 12h2v2h-2z"/><path d="m24 20a5.148 5.148 0 0 0 4.969-3.75l-1.938-.5a3.167 3.167 0 0 1 -6.062 0l-1.938.5a5.148 5.148 0 0 0 4.969 3.75z"/><path d="m24 32a3 3 0 1 0 -3-3 3 3 0 0 0 3 3zm0-4a1 1 0 1 1 -1 1 1 1 0 0 1 1-1z"/><path d="m18.039 46.724a1 1 0 0 0 .272 1l2.128 2.028-.429 3.111a1 1 0 0 0 1.545.969l2.445-1.632 2.445 1.63a1 1 0 0 0 1.545-.969l-.429-3.111 2.128-2.028a1 1 0 0 0 -.488-1.7l-2.964-.608-1.332-2.838a1 1 0 0 0 -1.81 0l-1.332 2.838-2.964.608a1 1 0 0 0 -.76.702zm4.617.547a1 1 0 0 0 .7-.554l.644-1.363.64 1.363a1 1 0 0 0 .7.554l1.581.325-1.114 1.062a1 1 0 0 0 -.3.861l.195 1.416-1.15-.767a1 1 0 0 0 -1.11 0l-1.15.767.195-1.416a1 1 0 0 0 -.3-.861l-1.112-1.058z"/><path d="m15.419 2.186-6.425 4.589a2.989 2.989 0 1 0 1.006 2.225c0-.045-.011-.087-.013-.131l5.013-.716v6.847a8.983 8.983 0 0 0 3.356 7h-9.356a3 3 0 0 0 0 6h1.838l5.162 1.721v4.279h-11v28h38v-5h4v-5h3a1 1 0 0 0 1-1v-7h2v1a1 1 0 0 0 .836.986l6 1a.908.908 0 0 0 .164.014 1 1 0 0 0 1-1v-6a1 1 0 0 0 -1.164-.986l-6 1a1 1 0 0 0 -.836.986v1h-3a1 1 0 0 0 -1 1v7h-2v-5h-4v-11h-11v-4.279l5.162-1.721h1.838a3 3 0 0 0 0-6h-9.356a8.983 8.983 0 0 0 3.356-7v-6.847l5.013.716c0 .044-.013.086-.013.131a3.03 3.03 0 1 0 1.006-2.225l-6.425-4.589a1 1 0 0 0 -1.028-.081l-7.553 3.777-7.553-3.777a1 1 0 0 0 -1.028.081zm-8.419 7.814a1 1 0 1 1 1-1 1 1 0 0 1 -1 1zm3 16h-1a1 1 0 0 1 0-2h1zm45 15.847 4-.666v3.638l-4-.666zm-12 5.153h2v8h-2zm-5-23h1a1 1 0 0 1 0 2h-1zm3-16a1 1 0 1 1 -1 1 1 1 0 0 1 1-1zm0 28v24h-34v-24zm-5-12v2.279l-6 2v5.721h-12v-5.721l-6-2v-2.279zm-4.091-19.836 3.173 2.266-2.94-.42a1 1 0 0 0 -1.142.99v5.586l-5.312-5.312zm-.929 11.23a6.991 6.991 0 0 1 -13.96 0l6.98-6.98zm-8.668-8.12-5.312 5.312v-5.586a1 1 0 0 0 -1-1 .969.969 0 0 0 -.142.01l-2.94.42 3.173-2.266z"/><path d="m37 14h2v2h-2z"/><path d="m37 18h2v2h-2z"/><path d="m35 16h2v2h-2z"/><path d="m39 16h2v2h-2z"/><path d="m9 13h2v2h-2z"/><path d="m9 17h2v2h-2z"/><path d="m7 15h2v2h-2z"/><path d="m11 15h2v2h-2z"/><path d="m15 50h2v2h-2z"/><path d="m31 50h2v2h-2z"/></g></svg>