<svg id="Layer_1" enable-background="new 0 0 480 480" height="512" viewBox="0 0 480 480" width="512" xmlns="http://www.w3.org/2000/svg"><path d="m80 472v-432c0-17.67 14.33-32 32-32h256c17.67 0 32 14.33 32 32v432z" fill="#d6f4fc"/><path d="m285 360v112c-6.56 0-79.464 0-90 0v-112c0-8.84 7.16-16 16-16h58c8.84 0 16 7.16 16 16z" fill="#bdeffc"/><path d="m299 121.6v28.8c0 2.209-1.791 4-4 4h-32.6c-2.209 0-4 1.791-4 4v32.6c0 2.209-1.791 4-4 4h-28.8c-2.209 0-4-1.791-4-4v-32.6c0-2.209-1.791-4-4-4h-32.6c-2.209 0-4-1.791-4-4v-28.8c0-2.209 1.791-4 4-4h32.6c2.209 0 4-1.791 4-4v-32.6c0-2.209 1.791-4 4-4h28.8c2.209 0 4 1.791 4 4v32.6c0 2.209 1.791 4 4 4h32.6c2.209 0 4 1.791 4 4z" fill="#fe4f60"/><path d="m368.119 48h-216.119c-17.673 0-32 14.327-32 32v392h-40v-432c0-17.673 14.327-32 32-32h256c27.503 0 26.19 40 .119 40z" fill="#f1fafc"/><path d="m269.084 364h-38.084c-8.837 0-16 7.163-16 16v92h-20v-112c0-8.837 7.163-16 16-16h58c13.924 0 13.007 20 .084 20z" fill="#8be5fc"/><path d="m444 472c0 4.418-3.582 8-8 8h-151c-4.418 0-8-3.582-8-8v-112c0-4.411-3.589-8-8-8h-58c-4.411 0-8 3.589-8 8v76c0 4.418-3.582 8-8 8s-8-3.582-8-8v-76c0-13.233 10.766-24 24-24h58c13.234 0 24 10.767 24 24v104h143c4.418 0 8 3.582 8 8zm-195.5-8h-160.5v-424c0-13.233 10.767-24 24-24h256c13.233 0 24 10.767 24 24v387c0 4.418 3.582 8 8 8s8-3.582 8-8v-387c0-22.056-17.944-40-40-40h-256c-22.056 0-40 17.944-40 40v424h-28c-4.418 0-8 3.582-8 8s3.582 8 8 8h204.5c4.418 0 8-3.582 8-8s-3.582-8-8-8zm50.5-301.599c4.418 0 8-3.582 8-8v-36.803c0-4.418-3.582-8-8-8h-32.599v-32.598c0-4.418-3.582-8-8-8h-36.803c-4.418 0-8 3.582-8 8v32.599h-32.598c-4.418 0-8 3.582-8 8v36.803c0 4.418 3.582 8 8 8h32.599v32.598c0 4.418 3.582 8 8 8h36.803c4.418 0 8-3.582 8-8v-40.599c0-4.418-3.582-8-8-8s-8 3.582-8 8v32.599h-20.803v-32.599c0-4.418-3.582-8-8-8h-32.599v-20.803h32.599c4.418 0 8-3.582 8-8v-32.598h20.803v32.599c0 4.418 3.582 8 8 8h32.598v28.803c0 4.417 3.582 7.999 8 7.999zm-73 93.599c-4.418 0-8 3.582-8 8s3.582 8 8 8h28c4.418 0 8-3.582 8-8s-3.582-8-8-8zm-52 0h-28c-4.418 0-8 3.582-8 8s3.582 8 8 8h28c4.418 0 8-3.582 8-8s-3.582-8-8-8zm132 16h28c4.418 0 8-3.582 8-8s-3.582-8-8-8h-28c-4.418 0-8 3.582-8 8s3.582 8 8 8z"/></svg>