<svg height="512pt" viewBox="-37 0 512 512" width="512pt" xmlns="http://www.w3.org/2000/svg"><path d="m388.640625 439.710938c-6.351563 0-11.519531-5.140626-11.519531-11.453126v-5.125c0-3.410156 1.519531-6.617187 4.164062-8.804687l.933594-.773437-.933594-.769532c-2.644531-2.1875-4.164062-5.402344-4.164062-8.8125v-5.121094c0-3.410156 1.519531-6.621093 4.164062-8.808593l.933594-.769531-.933594-.769532c-2.644531-2.191406-4.164062-5.402344-4.164062-8.8125v-.925781l-42.289063-58.359375c.269531 2 .421875 4.03125.421875 6.101562v98.097657l30.15625 41.613281c9.828125 13.566406 28.871094 16.648438 42.527344 6.882812 10.871094-7.773437 15.042969-21.339843 11.34375-33.394531h-30.640625zm0 0" fill="#003c72"/><path d="m377.003906 451.414062-41.75-57.613281v30.808594l30.15625 41.609375c9.828125 13.566406 28.871094 16.648438 42.527344 6.882812 5.195312-3.710937 8.855469-8.75 10.867188-14.3125-13.597657 9.152344-32.144532 5.953126-41.800782-7.375zm0 0" fill="#002d4f"/><path d="m70.101562 403.570312-.03125-.058593c-1.367187-2.625-1.128906-6.925781.511719-9.390625l23.21875-34.816406c2.152344-3.226563 1.3125-7.664063-1.867187-9.894532l-21.070313-14.78125c-2.316406-1.621094-3.226562-5.132812-1.996093-7.664062l22.484374-47.136719h-44.359374c-25.914063 0-46.992188 20.941406-46.992188 46.683594v180.246093c0 2.894532 2.351562 5.242188 5.246094 5.242188h103.785156zm0 0" fill="#003c72"/><path d="m289.265625 279.828125h-37.609375l22.476562 47.128906c1.238282 2.539063.328126 6.050781-1.988281 7.675781l-21.070312 14.777344c-3.179688 2.230469-4.019531 6.667969-1.871094 9.894532l23.222656 34.816406c1.640625 2.46875 1.875 6.765625.511719 9.390625l-.03125.058593-38.652344 108.429688h96.753906c2.898438 0 5.246094-2.347656 5.246094-5.242188v-180.246093c0-25.742188-21.078125-46.683594-46.988281-46.683594zm0 0" fill="#003c72"/><path d="m32.273438 506.757812v-180.246093c0-25.742188 21.082031-46.683594 46.992187-46.683594h-32.273437c-25.914063 0-46.992188 20.941406-46.992188 46.683594v180.246093c0 2.894532 2.351562 5.242188 5.246094 5.242188h32.277344c-2.898438 0-5.25-2.347656-5.25-5.242188zm0 0" fill="#002d4f"/><path d="m216.164062 349.222656-44.652343-30.597656-44.667969 29.941406v163.433594h89.320312zm0 0" fill="#abebff"/><path d="m146.859375 420.273438 24.644531 35.480468 24.640625-35.480468-11.550781-59.382813 15.476562-22.695313-28.558593-19.570312-28.769531 19.28125 15.667968 22.984375zm0 0" fill="#b7092b"/><path d="m216.164062 389.699219-44.660156 64.304687-44.660156-64.304687v122.300781h89.320312zm0 0" fill="#8a8c8e"/><path d="m126.84375 512h24.484375v-87.046875l-24.484375-35.253906zm0 0" fill="#6d6e71"/><path d="m216.164062 261.121094c-10.261718 4.464844-21.578124 6.960937-33.476562 6.960937h-22.367188c-11.898437 0-23.21875-2.496093-33.480468-6.960937v88.648437l44.664062-29.9375 44.65625 30.601563v-89.3125zm0 0" fill="#def9ff"/><path d="m250.035156 358.75c-1.84375-2.769531-1.121094-6.605469 1.613282-8.519531l21.070312-14.78125c2.730469-1.917969 3.773438-5.933594 2.316406-8.921875l-37.578125-78.789063c-6.613281 5.695313-14.117187 10.394531-22.292969 13.828125v250.433594h19.9375l38.722657-108.027344c1.535156-2.953125 1.277343-7.632812-.566407-10.40625zm0 0" fill="#0052ac"/><path d="m105.546875 247.738281-37.578125 78.789063c-1.457031 2.988281-.414062 7.003906 2.316406 8.921875l21.074219 14.78125c2.734375 1.917969 3.457031 5.75 1.609375 8.519531l-23.21875 34.816406c-1.847656 2.773438-2.105469 7.453125-.570312 10.40625l38.726562 108.027344h19.9375v-250.433594c-8.175781-3.433594-15.679688-8.132812-22.296875-13.828125zm0 0" fill="#0052ac"/><path d="m182.6875 268.082031h-22.367188c-7.164062 0-14.121093-.902343-20.765624-2.59375l31.949218 43.164063 31.945313-43.164063c-6.640625 1.691407-13.597657 2.59375-20.761719 2.59375zm0 0" fill="#f8d5ab"/><path d="m160.320312 268.082031c-7.164062 0-14.121093-.902343-20.765624-2.59375l31.949218 43.164063 11.007813-14.875-19.019531-25.695313zm0 0" fill="#eac092"/><path d="m243.992188 25.605469h-5.09375c-7.242188 0-14.023438 1.933593-19.867188 5.296875 3.085938 6.601562 4.824219 13.945312 4.824219 21.691406v16.917969c5.386719 2.777343 10.382812 6.011719 14.894531 9.691406 18.152344 14.8125 27.746094 35.699219 27.746094 60.402344v2.078125h14.515625c.929687 0 1.835937.09375 2.726562.242187v-76.785156c0-21.835937-17.792969-39.535156-39.746093-39.535156zm0 0" fill="#9b5729"/><path d="m61.996094 141.683594h14.511718v-2.074219c0-24.707031 9.59375-45.59375 27.75-60.40625 17.035157-13.898437 40.917969-21.554687 67.246094-21.554687 19.785156 0 38.191406 4.328124 53.351563 12.378906v-17.429688c0-29.050781-23.671875-52.597656-52.878907-52.597656h-59.832031c-29.203125 0-52.875 23.546875-52.875 52.597656v89.328125c.886719-.148437 1.796875-.242187 2.726563-.242187zm0 0" fill="#b57a4e"/><path d="m61.996094 141.683594h14.511718v-2.074219c0-17.914063 5.066407-33.800781 14.761719-46.839844v-40.171875c0-29.050781 23.671875-52.597656 52.875-52.597656h-32c-29.203125 0-52.875 23.546875-52.875 52.597656v89.328125c.886719-.148437 1.796875-.242187 2.726563-.242187zm0 0" fill="#9b5729"/><path d="m76.507812 184.722656v-44.039062h-14.511718c-9.78125 0-17.710938 7.886718-17.710938 17.613281v21.320313c0 9.730468 7.929688 17.613281 17.710938 17.613281h15.457031c-.621094-4.082031-.945313-8.257813-.945313-12.507813zm0 0" fill="#ffe2b8"/><path d="m281.011719 140.683594h-14.515625v44.039062c0 4.25-.324219 8.425782-.945313 12.511719h15.460938c9.78125 0 17.707031-7.886719 17.707031-17.613281v-21.324219c0-9.726563-7.925781-17.613281-17.707031-17.613281zm0 0" fill="#f8d5ab"/><path d="m171.503906 56.648438c-53.019531 0-95.996094 30.433593-95.996094 82.960937v45.109375c0 46.59375 37.972657 84.363281 84.8125 84.363281h22.367188c46.835938 0 84.808594-37.769531 84.808594-84.363281v-45.109375c0-52.527344-42.976563-82.960937-95.992188-82.960937zm0 0" fill="#ffe2b8"/><path d="m96.421875 184.722656v-45.113281c0-49.027344 37.441406-78.800781 85.539063-82.554687-3.4375-.265626-6.925782-.40625-10.457032-.40625-53.019531 0-95.996094 30.433593-95.996094 82.960937v45.113281c0 46.589844 37.972657 84.359375 84.8125 84.359375h20.914063c-46.839844 0-84.8125-37.769531-84.8125-84.359375zm0 0" fill="#ffc987"/><path d="m179.132812 191.246094h-10.410156c-6.808594 0-12.351562-5.527344-12.351562-12.320313v-24.539062c0-4.144531 3.359375-7.5 7.5-7.5 4.144531 0 7.5 3.355469 7.5 7.5v21.855469h7.761718c4.140626 0 7.5 3.359374 7.5 7.5 0 4.144531-3.359374 7.503906-7.5 7.503906zm0 0" fill="#72563c"/><path d="m403.488281 309.160156c-2.578125 0-5.085937-.296875-7.5-.847656v54.804688h15v-54.804688c-2.414062.550781-4.921875.847656-7.5.847656zm0 0" fill="#abebff"/><path d="m403.488281 310.160156c-19.113281 0-34.664062-15.445312-34.664062-34.433594v-68.875c0-3.335937 2.722656-6.039062 6.078125-6.039062h57.167968c3.363282 0 6.082032 2.703125 6.082032 6.039062v68.875c0 18.988282-15.550782 34.433594-34.664063 34.433594zm0 0" fill="#def9ff"/><path d="m390.175781 275.726562v-68.875c0-3.335937 2.722657-6.039062 6.082031-6.039062h-21.351562c-3.359375 0-6.082031 2.703125-6.082031 6.039062v68.875c0 18.988282 15.550781 34.433594 34.664062 34.433594 3.726563 0 7.3125-.59375 10.675781-1.679687-13.90625-4.480469-23.988281-17.46875-23.988281-32.753907zm0 0" fill="#abebff"/><path d="m368.824219 235.246094v40.480468c0 18.988282 15.550781 34.433594 34.664062 34.433594s34.664063-15.445312 34.664063-34.433594v-40.480468zm0 0" fill="#fff4a4"/><path d="m390.175781 275.726562v-40.480468h-21.351562v40.480468c0 18.988282 15.550781 34.433594 34.664062 34.433594 3.726563 0 7.3125-.59375 10.675781-1.679687-13.90625-4.480469-23.988281-17.46875-23.988281-32.753907zm0 0" fill="#e8dd52"/><path d="m420.375 440.710938c6.90625 0 12.523438-5.585938 12.523438-12.453126v-53.6875c0-6.867187-5.617188-12.453124-12.523438-12.453124h-31.734375c-6.90625 0-12.519531 5.585937-12.519531 12.453124v5.121094c0 3.847656 1.761718 7.292969 4.527344 9.582032-2.765626 2.285156-4.527344 5.730468-4.527344 9.578124v5.121094c0 3.851563 1.761718 7.296875 4.527344 9.582032-2.765626 2.285156-4.527344 5.730468-4.527344 9.578124v5.125c0 6.863282 5.613281 12.453126 12.519531 12.453126zm0 0" fill="#ffe2b8"/><path d="m397.390625 428.257812v-5.125c0-3.84375 1.761719-7.289062 4.527344-9.574218-2.765625-2.289063-4.527344-5.734375-4.527344-9.582032v-5.125c0-3.847656 1.761719-7.289062 4.527344-9.578124-2.765625-2.285157-4.527344-5.730469-4.527344-9.578126v-5.125c0-6.863281 5.613281-12.453124 12.519531-12.453124h-21.269531c-6.90625 0-12.519531 5.585937-12.519531 12.453124v5.125c0 3.847657 1.761718 7.292969 4.527344 9.578126-2.765626 2.289062-4.527344 5.730468-4.527344 9.578124v5.125c0 3.847657 1.761718 7.292969 4.527344 9.582032-2.765626 2.285156-4.527344 5.730468-4.527344 9.574218v5.125c0 6.867188 5.613281 12.453126 12.519531 12.453126h21.269531c-6.90625 0-12.519531-5.585938-12.519531-12.453126zm0 0" fill="#ffc987"/><g fill="#72563c"><path d="m125.070312 172.429688c-4.140624 0-7.5-3.359376-7.5-7.5v-17.425782c0-4.140625 3.359376-7.5 7.5-7.5 4.144532 0 7.5 3.359375 7.5 7.5v17.425782c0 4.140624-3.355468 7.5-7.5 7.5zm0 0"/><path d="m145.175781 136.03125c-1.914062 0-3.824219-.726562-5.289062-2.179688-8.167969-8.113281-21.460938-8.113281-29.628907 0-2.9375 2.921876-7.6875 2.90625-10.609374-.035156-2.917969-2.9375-2.902344-7.6875.035156-10.605468 14-13.902344 36.777344-13.902344 50.773437 0 2.9375 2.921874 2.957031 7.667968.035157 10.605468-1.464844 1.476563-3.390626 2.214844-5.316407 2.214844zm0 0"/><path d="m217.363281 172.429688c-4.140625 0-7.5-3.359376-7.5-7.5v-17.425782c0-4.140625 3.359375-7.5 7.5-7.5 4.144531 0 7.5 3.359375 7.5 7.5v17.425782c0 4.140624-3.355469 7.5-7.5 7.5zm0 0"/><path d="m197.261719 136.03125c-1.925781 0-3.855469-.738281-5.320313-2.214844-2.917968-2.9375-2.902344-7.6875.035156-10.605468 14-13.902344 36.777344-13.90625 50.773438 0 2.9375 2.921874 2.953125 7.667968.035156 10.605468-2.917968 2.941406-7.667968 2.957032-10.605468.035156-8.167969-8.113281-21.460938-8.113281-29.632813.003907-1.460937 1.449219-3.375 2.175781-5.285156 2.175781zm0 0"/></g><path d="m171.503906 246.015625c-19.398437 0-35.183594-15.679687-35.183594-34.949219 0-3.660156 2.996094-6.636718 6.679688-6.636718h57.003906c3.683594 0 6.679688 2.976562 6.679688 6.636718 0 19.269532-15.78125 34.949219-35.179688 34.949219zm0 0" fill="#ffa05f"/><path d="m157.234375 211.066406c0-3.660156 2.996094-6.636718 6.679687-6.636718h-20.914062c-3.683594 0-6.679688 2.976562-6.679688 6.636718 0 19.269532 15.785157 34.949219 35.183594 34.949219 3.640625 0 7.152344-.550781 10.457032-1.578125-14.308594-4.433594-24.726563-17.714844-24.726563-33.371094zm0 0" fill="#ff812c"/></svg>