<svg id="Layer_1" height="512" viewBox="0 0 512 512" width="512" xmlns="http://www.w3.org/2000/svg" data-name="Layer 1"><g fill="#9e4eaf"><path d="m400.75 366.43a46.685 46.685 0 0 1 .43 6.29 45.984 45.984 0 1 1 -.43-6.29z"/><circle cx="156.82" cy="314.48" r="46"/><path d="m400.75 113.28v59.95l-197.93 40.09v-68.05a20.009 20.009 0 0 1 16.03-19.6l157.93-31.99a20 20 0 0 1 23.97 19.6z"/></g><path d="m339.18 367.72a45.987 45.987 0 0 1 23.853-40.32 46 46 0 1 0 -7.853 91.322 45.788 45.788 0 0 0 22.15-5.681 46 46 0 0 1 -38.15-45.321z" fill="#ce6ee5"/><path d="m140.82 309.48a45.989 45.989 0 0 1 23.853-40.319 46 46 0 1 0 -7.853 91.319 45.8 45.8 0 0 0 22.153-5.68 46 46 0 0 1 -38.153-45.32z" fill="#ce6ee5"/><path d="m218.85 125.67a20.009 20.009 0 0 0 -16.03 19.6v68.05l30-6.076v-66.974a20.009 20.009 0 0 1 16.03-19.6z" fill="#ce6ee5"/><path d="m407 113.285a26.186 26.186 0 0 0 -31.346-25.485l-157.872 31.99a26.03 26.03 0 0 0 -20.782 25.484v136.026c-10-11.487-24.02-18.815-40.088-18.815a52 52 0 1 0 52.088 52v-96.25l186-37.665v158.477c-10-11.2-23.864-18.326-39.7-18.326a52 52 0 1 0 52.016 52c0-2.209-.315-4.38-.315-6.517zm-250.176 241.2a40 40 0 1 1 40-40 40.046 40.046 0 0 1 -40 39.997zm52.176-148.497v-60.714a13.964 13.964 0 0 1 11.133-13.72l157.885-31.991a14.167 14.167 0 0 1 16.982 13.722v55.041zm146.176 206.734a40 40 0 1 1 39.824-45.779v5.057h.155s.022.5.022.783a39.994 39.994 0 0 1 -40.001 39.939z" fill="#284268"/></svg>