<svg id="icons" enable-background="new 0 0 64 64" height="512" viewBox="0 0 64 64" width="512" xmlns="http://www.w3.org/2000/svg"><g><g><path d="m44.07 40.945c1.81 1.799 2.93 4.299 2.93 7.068-5.53 0-10-4.469-10-10 2.76.001 5.26 1.122 7.07 2.932z" fill="#e6e9ed"/></g><g><path d="m49.93 40.945c-1.81 1.799-2.93 4.299-2.93 7.069 0-2.77-1.12-5.27-2.93-7.068 0-2.561.979-5.111 2.93-7.07 1.95 1.958 2.93 4.509 2.93 7.069z" fill="#ccd1d9"/></g><g><path d="m57 38.014c0 5.531-4.47 10-10 10 0-2.77 1.12-5.27 2.93-7.068 1.81-1.811 4.31-2.932 7.07-2.932z" fill="#e6e9ed"/></g><g><path d="m9.004 8.992c-.553 0-1-.447-1-1v-1c0-.553.447-1 1-1s1 .447 1 1v1c0 .553-.447 1-1 1z" fill="#8cc152"/></g><g><path d="m9.004 51.006c-.553 0-1-.447-1-1v-30.012c0-.553.447-1 1-1s1 .447 1 1v30.012c0 .553-.447 1-1 1z" fill="#8cc152"/></g><g><path d="m22 12.996c-.553 0-1-.447-1-1v-1c0-.553.447-1 1-1s1 .447 1 1v1c0 .553-.447 1-1 1z" fill="#8cc152"/></g><g><path d="m22 51.006c-.553 0-1-.447-1-1v-26.008c0-.553.447-1 1-1s1 .447 1 1v26.008c0 .553-.447 1-1 1z" fill="#8cc152"/></g><g><path d="m13.005 51.006c-.03 0-.061-.002-.092-.004-.55-.051-.955-.537-.905-1.088l3-33.006c.051-.549.529-.953 1.087-.904.55.049.955.535.905 1.086l-3 33.006c-.048.519-.483.91-.995.91z" fill="#a0d468"/></g><g><path d="m7.002 51.006c-.512 0-.947-.391-.995-.91l-3-33.006c-.05-.551.355-1.037.905-1.086.56-.047 1.036.355 1.087.904l3 33.006c.05.551-.355 1.037-.905 1.088-.031.002-.062.004-.092.004z" fill="#a0d468"/></g><g><path d="m24.001 51.016c-.046 0-.092-.002-.139-.01-.547-.074-.929-.58-.853-1.127l5-36.014c.075-.547.577-.936 1.128-.854.547.076.929.582.853 1.129l-5 36.014c-.069.5-.498.862-.989.862z" fill="#a0d468"/></g><g><path d="m21.999 51.006c-.458 0-.872-.318-.976-.783l-4-18.004c-.119-.539.221-1.072.76-1.193.538-.111 1.073.221 1.193.76l4 18.004c.119.539-.221 1.072-.76 1.193-.072.015-.145.023-.217.023z" fill="#a0d468"/></g><g><path d="m1 50.02h62v7.988h-62z" fill="#5d9cec"/></g><g><path d="m56.5 47.014c.84 0 1.51.67 1.51 1.5 0 .84-.67 1.51-1.51 1.51h-19c-.83 0-1.5-.68-1.5-1.51s.67-1.5 1.5-1.5h9.5z" fill="#a0d468"/></g><g><path d="m24 13.004v9c0 1.1-.9 2-2 2s-2-.9-2-2v-9c0-1.111.9-2 2-2s2 .889 2 2z" fill="#965353"/></g><g><path d="m11 8.994v9c0 1.109-.89 2-2 2-1.1 0-2-.891-2-2v-9c0-1.102.9-2 2-2 1.11 0 2 .899 2 2z" fill="#965353"/></g><g><path d="m29 55.008h-27c-.553 0-1-.447-1-1s.447-1 1-1h27c.553 0 1 .447 1 1s-.447 1-1 1z" fill="#87bcf4"/></g><g><path d="m61 58.008h-24c-.553 0-1-.447-1-1s.447-1 1-1h24c.553 0 1 .447 1 1s-.447 1-1 1z" fill="#87bcf4"/></g><g><path d="m41.002 21.01c-.256 0-.512-.098-.707-.293l-2-2c-.391-.391-.391-1.023 0-1.414s1.023-.391 1.414 0l2 2c.391.391.391 1.023 0 1.414-.195.195-.451.293-.707.293z" fill="#656d78"/></g><g><path d="m41.002 21.01c-.256 0-.512-.098-.707-.293-.391-.391-.391-1.023 0-1.414l3-3c.391-.391 1.023-.391 1.414 0s.391 1.023 0 1.414l-3 3c-.195.195-.451.293-.707.293z" fill="#656d78"/></g><g><path d="m52.001 24.012c-.256 0-.512-.098-.707-.293l-1-1c-.391-.391-.391-1.023 0-1.414s1.023-.391 1.414 0l1 1c.391.391.391 1.023 0 1.414-.195.195-.451.293-.707.293z" fill="#656d78"/></g><g><path d="m52.001 24.012c-.256 0-.512-.098-.707-.293-.391-.391-.391-1.023 0-1.414l2-2c.391-.391 1.023-.391 1.414 0s.391 1.023 0 1.414l-2 2c-.195.195-.451.293-.707.293z" fill="#656d78"/></g></g></svg>