<svg id="Layer_5" enable-background="new 0 0 64 64" height="512" viewBox="0 0 64 64" width="512" xmlns="http://www.w3.org/2000/svg"><g><g><g><path d="m26.15 59.85-1.32 1.32c-.49.49-1.14.78-1.82.82-.06.01-.12.01-.18.01-.78 0-1.49-.32-2-.83s-.83-1.22-.83-2c0-.75.3-1.47.83-2l1.17-1.17 3.29 3.29c.25.25.54.44.86.56z" fill="#aab2bd"/></g><g><path d="m29.41 53.41c-.9-.9-2.13-1.41-3.41-1.41l3-3 4 4-2.15 2.15c-.12-.32-.31-.61-.56-.86z" fill="#aab2bd"/></g><g><path d="m24.83 61.17 1.32-1.32c.27.1.56.15.85.15.64 0 1.25-.25 1.71-.71l1.58-1.58c.46-.46.71-1.07.71-1.71 0-.29-.05-.58-.15-.85l2.15-2.15 6-1.91v10.91h-15.99v-.01c.68-.04 1.33-.33 1.82-.82z" fill="#ff826e"/></g><g><path d="m29 35c1.1 0 2.1-.45 2.83-1.17.72-.73 1.17-1.73 1.17-2.83v-1l3.21.27.01.01c-1.2 1.2-2.11 2.68-2.65 4.37l-4.57 14.35-3 3-5.07-5.07c-1.23-1.23-1.93-2.91-1.93-4.67v-.26c0-1.3.39-2.58 1.11-3.66l.89-1.34s0-3.97 0-6.67l4-.33v1c0 2.21 1.79 4 4 4z" fill="#ff826e"/></g><g><path d="m22 20c0 1.04.22 2.03.63 2.91-.66 1.59-1.13 2.34-2.63 3.09-2 1-2 4-2 4s-5-2-5-6c0-2 2-3 1-5s-5-4-5-9c0-1.12.22-2.34.64-3.48s1.04-2.2 1.84-3c.97-.97 2.3-1.52 3.68-1.52h.25c1.58 0 3.08.72 4.07 1.95l1.69 2.12c-.1.07-.2.15-.3.23-1.71 1.42-2.87 3.39-2.87 5.56 0 2.65 1.05 5.19 2.93 7.07z" fill="#656d78"/></g><g><path d="m40 11.86c0 1.32-.26 2.62-.76 3.82s-1.23 2.31-2.17 3.25l-1.07 1.07v-6s-4-1-7-4c-3 3-7 4-7 4v6l-1.07-1.07c-1.88-1.88-2.93-4.42-2.93-7.07 0-2.17 1.16-4.14 2.87-5.56.1-.08.2-.16.3-.23 1.67-1.29 3.78-2.07 5.83-2.07h4c4.34 0 9 3.52 9 7.86z" fill="#656d78"/></g><g><path d="m22 20v-6s4-1 7-4c3 3 7 4 7 4v6 .01c0 1.94-.78 3.67-2.05 4.94-.47.47-1.01.87-1.59 1.19v.01c-1 .54-2.14.85-3.36.85s-2.36-.31-3.36-.85v-.01c-1.32-.72-2.38-1.85-3.01-3.23-.41-.88-.63-1.87-.63-2.91z" fill="#f0d0b4"/></g><g><path d="m33 30v1c0 1.1-.45 2.1-1.17 2.83-.73.72-1.73 1.17-2.83 1.17-2.21 0-4-1.79-4-4v-1l.64-3.85c1 .54 2.14.85 3.36.85s2.36-.31 3.36-.85z" fill="#f0d0b4"/></g><g><path d="m26.15 59.85c-.32-.12-.61-.31-.86-.56l-3.29-3.29-7.54-7.54c-.93-.93-1.46-2.2-1.46-3.53v-6.57c0-4.16 3.19-7.63 7.34-7.97l.66-.06v6.67l-.89 1.34c-.72 1.08-1.11 2.36-1.11 3.66v.26c0 1.76.7 3.44 1.93 4.67l5.07 5.07c1.28 0 2.51.51 3.41 1.41l.88.88c.25.25.44.54.56.86.1.27.15.56.15.85 0 .64-.25 1.25-.71 1.71l-1.58 1.58c-.46.46-1.07.71-1.71.71-.29 0-.58-.05-.85-.15z" fill="#f0d0b4"/></g><g><path d="m55 37.97c0 4.78-3.09 9.01-7.65 10.46l-8.35 2.66-6 1.91-4-4 4.57-14.35c.54-1.69 1.45-3.17 2.65-4.37.41-.42.85-.81 1.33-1.16 1.84-1.35 4.09-2.12 6.48-2.12 3.03 0 5.77 1.23 7.76 3.21 1.98 1.99 3.21 4.73 3.21 7.76zm-18 9.03c0-1.1-.9-2-2-2s-2 .9-2 2 .9 2 2 2 2-.9 2-2z" fill="#fcd770"/></g><g><circle cx="44" cy="38" fill="#e6e9ed" r="7"/></g><g><path d="m37.07 37.07.93.93-.93.93c-.05-.3-.07-.61-.07-.93s.02-.63.07-.93z" fill="#e6e9ed"/></g></g><g><path d="m44.025 26c-3.13 0-6.022 1.204-8.186 3.233l-1.981-.165-.404-2.427c2.02-1.359 3.38-3.617 3.523-6.195l.801-.81c2.077-2.077 3.222-4.84 3.222-7.779 0-5.069-5.279-8.857-10-8.857h-4c-1.917 0-3.922.633-5.632 1.715l-1.11-1.387c-1.184-1.479-2.949-2.328-4.845-2.328h-.258c-1.657 0-3.215.646-4.387 1.817-1.681 1.682-2.768 4.501-2.768 7.183 0 3.881 2.156 6.136 3.73 7.782.61.64 1.139 1.191 1.375 1.665.339.677.15 1.09-.309 1.959-.354.673-.796 1.512-.796 2.594 0 3.502 3.093 5.618 4.696 6.48-2.798 1.545-4.696 4.525-4.696 7.881v6.567c0 1.603.624 3.109 1.758 4.243l6.828 6.829-.465.465c-.723.723-1.121 1.684-1.121 2.707 0 2.11 1.717 3.828 3.828 3.828.062 0 .121-.015.183-.018v.018h16.989v-11.177l7.655-2.436c4.991-1.588 8.345-6.175 8.345-11.412 0-6.603-5.372-11.975-11.975-11.975zm-13.025 27.586-.879-.879c-.593-.593-1.318-1.027-2.097-1.317l.976-.976 2.586 2.586zm-2.88-5.12-2.12 2.12-4.358-4.358c-1.043-1.043-1.642-2.489-1.642-3.964v-.264c0-1.11.325-2.186.941-3.109l1.059-1.588v-6.05l2.009-.167c.047 2.716 2.264 4.914 4.991 4.914 1.396 0 2.657-.578 3.565-1.504zm5.871-17.38.226.019c-.092.132-.181.268-.269.404.015-.141.041-.279.043-.423zm-1.991-1.004v.918c0 1.654-1.346 3-3 3s-3-1.346-3-3v-.918l.419-2.517c.811.277 1.677.435 2.581.435s1.77-.158 2.581-.435zm3-10.082c0 3.309-2.691 6-6 6s-6-2.691-6-6v-5.257c1.235-.412 3.761-1.422 6-3.376 2.239 1.954 4.765 2.964 6 3.376zm-4-15c3.699 0 8 2.995 8 6.857 0 2.083-.705 4.056-2 5.654l-.001-4.29-.755-.191c-.038-.01-3.78-.98-6.537-3.737l-.707-.707-.707.707c-2.757 2.757-6.499 3.728-6.537 3.737l-.756.192v4.29c-1.294-1.597-2-3.571-2-5.655 0-3.862 4.301-6.857 8-6.857zm-17 19c0-.587.263-1.085.566-1.661.481-.912 1.141-2.161.328-3.786-.371-.743-.996-1.396-1.719-2.152-1.488-1.557-3.175-3.322-3.175-6.401 0-2.145.877-4.463 2.183-5.769.794-.793 1.849-1.231 2.972-1.231h.258c1.284 0 2.48.575 3.282 1.578l1.085 1.356c-1.66 1.545-2.78 3.596-2.78 5.923 0 2.938 1.145 5.701 3.222 7.778l.8.8c.047.863.228 1.69.529 2.46-.525 1.2-.905 1.663-1.998 2.209-1.466.733-2.091 2.217-2.356 3.36-1.296-.775-3.197-2.286-3.197-4.464zm6.447 2.895c1.106-.553 1.761-1.136 2.281-1.943.516.652 1.126 1.225 1.817 1.69l-.404 2.427-3.889.324c-.418.035-.824.108-1.223.199.08-.716.367-2.172 1.418-2.697zm-6.447 18.034v-6.567c0-3.469 2.604-6.426 6-6.921v5.257l-.723 1.084c-.836 1.252-1.277 2.711-1.277 4.218v.264c0 2.002.812 3.963 2.228 5.378l5.358 5.358h.414c1.008 0 1.994.408 2.707 1.121l.879.879c.267.268.414.622.414 1s-.147.732-.414 1l-1.586 1.586c-.535.533-1.465.533-2 0l-10.828-10.828c-.756-.756-1.172-1.761-1.172-2.829zm7 14.243c0-.481.195-.953.535-1.293l.465-.465 2.586 2.586-.465.465c-.34.34-.811.535-1.293.535-1.008 0-1.828-.82-1.828-1.828zm17 1.828h-11-.586l.052-.052c.176.027.353.052.534.052.912 0 1.77-.355 2.414-1l1.586-1.586c.645-.645 1-1.502 1-2.414 0-.181-.025-.358-.052-.534l1.586-1.586 4.466-1.421zm9.05-13.52-13.773 4.382-3.139-3.139 4.382-13.773c1.322-4.157 5.143-6.95 9.506-6.95 5.5 0 9.975 4.475 9.975 9.975-.001 4.363-2.794 8.183-6.951 9.505z"/><path d="m35 44c-1.654 0-3 1.346-3 3s1.346 3 3 3 3-1.346 3-3-1.346-3-3-3zm0 4c-.552 0-1-.448-1-1s.448-1 1-1 1 .448 1 1-.448 1-1 1z"/><path d="m44 30c-4.411 0-8 3.589-8 8s3.589 8 8 8 8-3.589 8-8-3.589-8-8-8zm-3 6.414 1.586 1.586-1.586 1.586-1.586-1.586zm1.414-1.414 1.586-1.586 1.586 1.586-1.586 1.586zm1.586 4.414 1.586 1.586-1.586 1.586-1.586-1.586zm3 .172-1.586-1.586 1.586-1.586 1.586 1.586zm2.764-3.236-4.114-4.114c1.983.569 3.545 2.131 4.114 4.114zm-7.414-4.114-4.114 4.114c.569-1.983 2.131-3.545 4.114-4.114zm-4.114 7.414 4.114 4.114c-1.983-.569-3.545-2.131-4.114-4.114zm7.414 4.114 4.114-4.114c-.569 1.983-2.131 3.545-4.114 4.114z"/><path d="m27 20h-2c0 2.206 1.794 4 4 4s4-1.794 4-4h-2c0 1.103-.897 2-2 2s-2-.897-2-2z"/><circle cx="26" cy="17" r="1"/><circle cx="32" cy="17" r="1"/></g></g></svg>