<svg id="icons" enable-background="new 0 0 64 64" height="512" viewBox="0 0 64 64" width="512" xmlns="http://www.w3.org/2000/svg"><path d="m38.035 5c.552 0 1-.448 1-1s-.448-1-1-1h-.011c-.552 0-.994.448-.994 1s.452 1 1.005 1z"/><path d="m41.005 5h3c.553 0 1-.448 1-1s-.447-1-1-1h-3c-.553 0-1 .448-1 1s.447 1 1 1z"/><path d="m44.005 55c0-1.654-1.346-3-3-3s-3 1.346-3 3 1.346 3 3 3 3-1.346 3-3zm-3 1c-.552 0-1-.448-1-1s.448-1 1-1 1 .448 1 1-.448 1-1 1z"/><path d="m11.995 64h18.01 4.991 17.009c3.859 0 7-3.141 7-7v-50.998c0-3.304-2.685-5.992-5.987-6-.004 0-.008-.002-.013-.002h-17.009-6.991-18.01c-3.309 0-6 2.691-6 6v51c0 3.859 3.141 7 7 7zm0-2c-2.418 0-4.438-1.726-4.899-4.01 1.263 1.241 2.993 2.01 4.899 2.01h11.695c.356.749.839 1.426 1.425 2zm40.01-4h-11-11c-2.757 0-5-2.243-5-5v-1h16 16v1c0 2.757-2.243 5-5 5zm5-8h-32v-41.998h32zm-5 12h-17.009-4.991c-2.418 0-4.438-1.726-4.899-4.01 1.264 1.241 2.993 2.01 4.899 2.01h22c1.906 0 3.636-.769 4.899-2.01-.461 2.284-2.481 4.01-4.899 4.01zm.99-60c.004 0 .007.002.01.002 2.206 0 4 1.794 4 4h-32v-.002c0-2.206 1.794-4 4-4h6.991zm-42 0h13.55c-.954 1.063-1.54 2.462-1.54 4v51c0 .341.032.673.08 1h-11.09c-2.757 0-5-2.243-5-5v-47c0-2.206 1.794-4 4-4z"/><path d="m14.996 23c2.757 0 5-2.243 5-5v-7.998c0-2.757-2.243-5-5-5s-5 2.243-5 5v7.998c0 2.757 2.243 5 5 5zm0-2c-1.654 0-3-1.346-3-3v-4.023c.838.634 1.87 1.025 3 1.025s2.162-.391 3-1.025v4.023c0 1.654-1.346 3-3 3zm0-13.998c1.654 0 3 1.346 3 3s-1.346 3-3 3-3-1.346-3-3 1.346-3 3-3z"/><path d="m15.026 11.002c.552 0 1-.448 1-1s-.448-1-1-1h-.011c-.552 0-.994.448-.994 1s.453 1 1.005 1z"/></svg>