<svg height="512" viewBox="0 0 60 60" width="512" xmlns="http://www.w3.org/2000/svg"><g id="Page-1" fill="none" fill-rule="evenodd"><g id="023---Elephant" fill-rule="nonzero" transform="translate(-1 -1)"><path id="Shape" d="m46 25.5c-.0723614 3.5642349-1.7843363 6.8959447-4.64 9.03-1.8170915 1.4276322-3.9221117 2.4443195-6.17 2.98l-.97 7.74c-.1291914 1.0005939-.9811004 1.74976-1.99 1.75h-2.46c-1.0088996-.00024-1.8608086-.7494061-1.99-1.75l-.97-7.74c-2.2478883-.5356805-4.3529085-1.5523678-6.17-2.98-2.8556637-2.1340553-4.5676386-5.4657651-4.64-9.03 0-.25 0-.51.01-.78.15-4.94 1.66-13.61 6.22-18.69 2.1957642-2.55794725 5.3988764-4.02975558 8.77-4.02975558s6.5742358 1.47180833 8.77 4.02975558c4.56 5.08 6.07 13.75 6.22 18.69.01.27.01.53.01.78z" fill="#9e9e9e"/><path id="Shape" d="m45.99 24.72c-.15-4.94-1.66-13.61-6.22-18.69-2.1840497-2.57346741-5.3947293-4.04884239-8.77-4.03-.5015846.00234669-1.0025427.0357439-1.5.1 2.8267605.36337054 5.4177112 1.76398076 7.27 3.93 4.56 5.08 6.07 13.75 6.22 18.69.01.27.01.53.01.78-.0723614 3.5642349-1.7843363 6.8959447-4.64 9.03-1.4916937 1.1766595-3.1839401 2.0737703-4.995 2.648-.7266862.2406246-1.2486045.8798673-1.339 1.64l-.806 6.432c-.116642.898109-.8222334 1.6057515-1.72 1.725.0893335.0144105.1795393.0227629.27.025h2.46c1.0088996-.00024 1.8608086-.7494061 1.99-1.75l.97-7.74c2.2478883-.5356805 4.3529085-1.5523678 6.17-2.98 2.8556637-2.1340553 4.5676386-5.4657651 4.64-9.03 0-.25 0-.51-.01-.78z" fill="#707070"/><path id="Shape" d="m46 48s-.32-.08-.82-.25c1.0219959 1.5210508 1.6444714 3.2749873 1.81 5.1h-.02c-.3029442-2.9976345-2.62616-5.3941658-5.6129387-5.7900706s-5.8541276 1.3126045-6.927576 4.1277948c-1.0734483 2.8151903-.0715885 5.9990512 2.4205147 7.6922758-1.8486092.7836378-3.8426678 1.1654063-5.85 1.12-2.0073322.0454063-4.0013908-.3363622-5.85-1.12 2.4889064-1.6925479 3.4902596-4.8724467 2.420236-7.6857052-1.0700236-2.8132584-3.9315054-4.5239269-6.9161023-4.1346263-2.9845969.3893005-5.311537 2.7767289-5.6241337 5.7703315h-.02c.1648682-1.8189668.7875452-3.5665906 1.81-5.08-.5.17-.82.25-.82.25-5-1-5-5-5-5 1.52-4.55 7.05-7.37 9.64-8.47 1.8170915 1.4276322 3.9221117 2.4443195 6.17 2.98l.97 7.74c.1291914 1.0005939.9811004 1.74976 1.99 1.75h2.46c1.0088996-.00024 1.8608086-.7494061 1.99-1.75l.97-7.74c2.2478883-.5356805 4.3529085-1.5523678 6.17-2.98 2.59 1.1 8.12 3.92 9.64 8.47 0 0 0 4-5 5z" fill="#545c60"/><path id="Shape" d="m28 53.5c0 3.5898509-2.9101491 6.5-6.5 6.5s-6.5-2.9101491-6.5-6.5c0-.22.01-.45.03-.67.332793-3.4621601 3.3320191-6.0488443 6.8055055-5.8694121s6.1902151 3.0613894 6.1644945 6.5394121z" fill="#7f8e94"/><path id="Shape" d="m21.5 47c-.5053359.0018198-1.0087358.0625634-1.5.181 2.5062161.5957645 4.4241194 2.6153765 4.8897012 5.1490079s-.60902 5.1031482-2.7397012 6.5509921c-.660222.4430372-1.3970851.759417-2.173.933 2.4395016.5964241 5.0043345-.2658224 6.5881227-2.2147977s1.9031472-4.6359525.8203171-6.9018671c-1.0828301-2.2659145-3.3741004-3.7053302-5.8854398-3.6973352z" fill="#545c60"/><path id="Shape" d="m47 53.5c-.0146153 3.5115184-2.8263774 6.3709693-6.3371535 6.4446345s-6.440008-2.6653247-6.6019071-6.1731394c-.1618992-3.5078147 2.5025873-6.5049762 6.0052235-6.7550069 3.5026361-.2500308 6.5658328 2.3382681 6.9038371 5.8335118.02.22.03.43.03.65z" fill="#7f8e94"/><path id="Shape" d="m46.97 52.85c-.1826995-1.866758-1.1651905-3.562811-2.6936527-4.6499945-1.5284622-1.0871834-3.452973-1.4588586-5.2763473-1.0190055 2.6933061.641056 4.686843 2.9149715 4.97 5.669.02.22.03.43.03.65-.0027963 3.000924-2.0596126 5.6098614-4.977 6.313 1.9317097.4764796 3.9751935.0327586 5.5353387-1.2019408 1.5601452-1.2346993 2.4615345-3.1215516 2.4416613-5.1110592 0-.22-.01-.43-.03-.65z" fill="#545c60"/><path id="Shape" d="m22 43c-2.0833849 1.1439283-3.8602573 2.7732998-5.18 4.75" fill="#7f8e94"/><path id="Shape" d="m15.01 52.83c-.01.11-.01.17-.01.17" fill="#7f8e94"/><path id="Shape" d="m45.18 47.75c-1.3197427-1.9767002-3.0966151-3.6060717-5.18-4.75" fill="#7f8e94"/><path id="Shape" d="m47 53s0-.05-.01-.15" fill="#7f8e94"/><circle id="Oval" cx="22" cy="18" fill="#02a9f4" r="2"/><circle id="Oval" cx="40" cy="18" fill="#02a9f4" r="2"/><path id="Shape" d="m22.23 6.03c-4.56 5.08-6.07 13.75-6.22 18.69-.8231028.1896189-1.6653457.2835742-2.51.28-5.31859275.0062486-9.94760053-3.6354304-11.1935196-8.8060352-1.24591908-5.1706048 1.21633866-10.52100903 5.95404708-12.93794653 4.73770842-2.4169375 10.51469362-1.26977526 13.96947252 2.77398173z" fill="#ef314c"/><path id="Shape" d="m13.5 2c-.4991542.00347922-.9975483.039556-1.492.108 2.8109225.36489454 5.3853929 1.7629938 7.222 3.922-4.56 5.08-6.07 13.75-6.22 18.69-.329.077-.667.127-1 .172.4938039.0682278.9915186.1043037 1.49.108.8446543.0035742 1.6868972-.0903811 2.51-.28.15-4.94 1.66-13.61 6.22-18.69-2.1750289-2.56274688-5.3686948-4.03702794-8.73-4.03z" fill="#bb193b"/><path id="Shape" d="m60 13.5c0 6.3512746-5.1487254 11.5-11.5 11.5-.8446543.0035742-1.6868972-.0903811-2.51-.28-.15-4.94-1.66-13.61-6.22-18.69 3.1260802-3.66134015 8.2031301-4.9858093 12.7194042-3.31815892s7.5141873 5.97382862 7.5105958 10.78815892z" fill="#ef314c"/><path id="Shape" d="m48.5 2c-.5044861.00302151-1.0082321.0390988-1.508.108 5.7234958.7446034 10.0059474 5.62027253 10.0059474 11.392 0 5.7717275-4.2824516 10.6473966-10.0059474 11.392 4.2640319.5880588 8.499479-1.254348 10.9763698-4.7746879 2.4768907-3.52034 2.7804952-8.1291685.7868059-11.94400584-1.9936893-3.81483739-5.9508496-6.19692845-10.2551757-6.17330626z" fill="#bb193b"/><path id="Shape" d="m26.81 37.51-1.81-14.51" fill="#7f8e94"/><path id="Shape" d="m37 23-1.81 14.51" fill="#7f8e94"/><g fill="#000"><path id="Shape" d="m22 15c-1.6568542 0-3 1.3431458-3 3s1.3431458 3 3 3 3-1.3431458 3-3-1.3431458-3-3-3zm0 4c-.5522847 0-1-.4477153-1-1s.4477153-1 1-1 1 .4477153 1 1-.4477153 1-1 1z"/><path id="Shape" d="m37 18c0 1.6568542 1.3431458 3 3 3s3-1.3431458 3-3-1.3431458-3-3-3-3 1.3431458-3 3zm3-1c.5522847 0 1 .4477153 1 1s-.4477153 1-1 1-1-.4477153-1-1 .4477153-1 1-1z"/><path id="Shape" d="m33 25h-4c-.5522847 0-1 .4477153-1 1s.4477153 1 1 1h4c.5522847 0 1-.4477153 1-1s-.4477153-1-1-1z"/><path id="Shape" d="m32 30h-2c-.5522847 0-1 .4477153-1 1s.4477153 1 1 1h2c.5522847 0 1-.4477153 1-1s-.4477153-1-1-1z"/><path id="Shape" d="m32 35h-2c-.5522847 0-1 .4477153-1 1s.4477153 1 1 1h2c.5522847 0 1-.4477153 1-1s-.4477153-1-1-1z"/><path id="Shape" d="m48.5 1c-3.2530284.00015375-6.3764083 1.2753544-8.7 3.552-2.3367632-2.31854323-5.5085084-3.59877489-8.8-3.552-3.2914916-.04677489-6.4632368 1.23345677-8.8 3.552-4.038755-3.92874415-10.2075227-4.667854-15.06008127-1.80442106-4.85255858 2.86343293-7.18789385 8.62070546-5.70135576 14.05548026s6.42702952 9.2019385 12.06143703 9.1969408c.5082173-.0027185 1.015807-.0361126 1.52-.1.1618731 3.1689276 1.5313462 6.1555026 3.827 8.346-3.147 1.53-7.409 4.284-8.8 8.434-.0329269.1034097-.04880117.2114897-.047.32 0 1.577 1.089 4.7 5.09 5.807-.6404118 1.3105875-1.0110748 2.7364501-1.09 4.193 0 .036.017.066.02.1-.007.134-.02.265-.02.4-.0051451 2.6807714 1.4235818 5.1596576 3.7457794 6.4990455 2.3221976 1.339388 5.1833365 1.3347935 7.5012206-.0120455 1.8368584.6965957 3.7886806 1.0402766 5.753 1.013 1.9643194.0272766 3.9161416-.3164043 5.753-1.013 2.3178841 1.346839 5.179023 1.3514335 7.5012206.0120455 2.3221976-1.3393879 3.7509245-3.8182741 3.7457794-6.4990455 0-.135-.013-.267-.02-.4 0-.034.02-.064.02-.1-.0789252-1.4565499-.4495882-2.8824125-1.09-4.193 4.001-1.107 5.09-4.23 5.09-5.807-.0001372-.1077785-.017697-.214826-.052-.317-1.386-4.15-5.648-6.9-8.8-8.434 2.2981918-2.1904297 3.6695601-5.1783091 3.832-8.349 3.5543773.4459221 7.1288377-.6585203 9.8121424-3.0317712 2.6833048-2.373251 4.2161831-5.7859983 4.2078576-9.3682288-.0077154-6.900361-5.599639-12.49228455-12.5-12.5zm-45.5 12.5c-.00702118-4.2340313 2.53392247-8.05651673 6.44060569-9.68896784 3.90668321-1.6324511 8.41185541-.75426369 11.41939431 2.22596784-4.108 5.133-5.546 13-5.811 17.835-.5123616.0817101-1.0301757.1244991-1.549.128-5.79624849-.006613-10.49338705-4.7037515-10.5-10.5zm13 40c0-3.0375661 2.4624339-5.5 5.5-5.5s5.5 2.4624339 5.5 5.5-2.4624339 5.5-5.5 5.5c-3.0361953-.0033068-5.4966932-2.4638047-5.5-5.5zm24.5 5.5c-3.0375661 0-5.5-2.4624339-5.5-5.5s2.4624339-5.5 5.5-5.5 5.5 2.4624339 5.5 5.5c-.0033068 3.0361953-2.4638047 5.4966932-5.5 5.5zm9.49-15.858c-.062.614-.525 3.044-3.959 3.829l-.213-.065c-1.3852182-1.9762278-3.2043182-3.6092446-5.318-4.774-.3107437-.187459-.6986581-.1918524-1.0135676-.0114792-.3149096.1803732-.5073813.5171988-.5029026.8800796s.2052049.6948535.5244702.8673996c1.1971511.6751305 2.2960563 1.5112541 3.266 2.485-3.2236046-1.0332873-6.7395781.2240493-8.5769497 3.067177s-1.539371 6.5652455.7269497 9.079823c-2.5733589.6679798-5.2746411.6679798-7.848 0 2.260764-2.515023 2.5564024-6.2327877.7215287-9.0734977s-5.3453232-4.1000434-8.5675287-3.0735023c.9711738-.9740398 2.0714409-1.8101755 3.27-2.485.4650043-.2805182.6211324-.8808858.3516968-1.3523981-.2694357-.4715124-.8659405-.6418041-1.3436968-.3836019-2.1151335 1.1642587-3.9356416 2.7973112-5.322 4.774l-.213.065c-3.433-.785-3.9-3.21-3.959-3.829 1.393-3.829 6.066-6.368 8.508-7.467 1.6216345 1.1873355 3.4431652 2.0740531 5.378 2.618l.885 7.079c.1878081 1.5029044 1.4664079 2.6300967 2.981 2.628h2.468c1.5130682.0000773 2.7893795-1.1266093 2.977-2.628l.885-7.079c1.9376361-.5430574 3.7619471-1.4298094 5.386-2.618 2.442 1.099 7.118 3.638 8.508 7.467zm-13.622-7.027 1.624-12.991c.054588-.5403144-.3320292-1.0254374-.8709005-1.0927963-.5388712-.0673589-1.0330074.3076699-1.1130995.8447963l-2.781 22.248c-.0625715.5007157-.4883899.8763622-.993.876h-2.468c-.5046101.0003622-.9304285-.3752843-.993-.876l-2.781-22.248c-.036479-.3610703-.265713-.6740379-.5989572-.8177416-.3332443-.1437037-.7181879-.0955858-1.0058053.1257257-.2876173.2213114-.4327598.581076-.3792375.9400159l1.624 12.991c-5.146-1.774-8.632-5.972-8.632-10.615 0-5.837 2.572-22.5 14-22.5s14 16.663 14 22.5c0 4.643-3.486 8.841-8.632 10.615zm12.132-12.115c-.5188243-.0035009-1.0366384-.0462899-1.549-.128-.265-4.833-1.7-12.7-5.811-17.835 3.3754813-3.32829284 8.5633858-3.97980915 12.6570283-1.58951663 4.0936426 2.39029251 6.076036 7.22857143 4.8364826 11.80404023s-5.3931102 7.7514399-10.1335109 7.7484764z"/></g></g></g></svg>